<?xml version="1.0" encoding="UTF-8" standalone="no"?>
<svg id="svg4156" xmlns:rdf="http://www.w3.org/1999/02/22-rdf-syntax-ns#" xmlns="http://www.w3.org/2000/svg" height="807" viewBox="0 0 1205 807" width="1205" version="1.1" xmlns:cc="http://creativecommons.org/ns#" xmlns:dc="http://purl.org/dc/elements/1.1/">
<path id="path4166" d="m504.5 805.6c-1.3265-1.0164-4.2614-1.5431-8.715-1.5642-9.4522-0.0448-15.423-2.2694-20.427-7.6106-2.28-2.44-4.84-4.43-5.68-4.43-0.84638 0-1.6827-1.0125-1.8584-2.25-0.24043-1.6929-0.87836-2.1722-2.5764-1.936-1.3472 0.18745-2.4987-0.31636-2.857-1.25-0.33-0.86-1.23-1.56-2-1.56-0.76 0-1.39-0.62-1.39-1.38 0-0.75727-2.3625-2.3932-5.25-3.6353-2.8875-1.2422-5.9298-2.9851-6.7607-3.8731-2.31-2.47-5.7-4.11-8.48-4.11-1.38 0-2.51-0.46-2.51-1.02 0-0.56179-1.2375-1.5206-2.75-2.1307-5.3913-2.1746-9.25-4.3153-9.25-5.1315 0-0.45586-1.9125-1.6861-4.25-2.7338s-6.1988-3.7036-8.5807-5.902-5.2202-4.2793-6.3073-4.6244c-1.0871-0.34505-2.3646-1.6477-2.8387-2.8948-0.89431-2.3522-8.2976-6.7264-13.523-7.9901-1.65-0.39903-4.575-1.4117-6.5-2.2503-4.0022-1.7436-6.1633-2.6164-10.75-4.3413-1.7875-0.67223-3.25-1.5194-3.25-1.8826s-1.9125-1.2399-4.25-1.9483c-2.3375-0.70835-5.6711-2.0441-7.4079-2.9683-1.7368-0.92422-7.8382-4.0054-13.558-6.8472-5.7203-2.8417-10.992-5.8792-11.715-6.75-0.72-0.88-2.17-1.59-3.23-1.59-1.0512 0-5.3836-2.2488-9.6276-4.9973-4.2439-2.7485-8.5515-4.9985-9.5723-5-1.0208-0.001-2.7191-1.0998-3.7739-2.4408s-4.3427-3.6245-7.3064-5.0745-6.1726-3.5028-7.131-4.5618c-0.96-1.06-2.33-1.93-3.05-1.93-0.72079 0-2.6916-1.35-4.3795-3s-4.1061-3-5.3738-3c-1.3608 0-3.6094-1.4336-5.4898-3.5-1.7517-1.925-3.8672-3.5-4.7012-3.5-1.6546 0-6.4133-3.1979-10.044-6.75-1.265-1.2375-2.8005-2.25-3.4122-2.25-0.61169 0-2.5871-1.125-4.3898-2.5s-3.6852-2.5062-4.1833-2.5138c-0.49809-0.008-3.8306-2.517-7.4056-5.5763s-7.85-6.2698-9.5-7.1343c-1.65-0.86452-4.7087-3.3275-6.797-5.4733-2.0884-2.1458-4.638-4.2167-5.6659-4.6019-2.3595-0.88426-8.3137-5.5842-13.239-10.45-2.0876-2.0625-4.5455-3.75-5.4619-3.75s-4.6294-2.6972-8.2511-5.9937c-11-10.01-12.18-11.01-13.06-11.01-0.46198 0-3.9212-2.9081-7.6872-6.4624s-7.3375-6.4793-7.9367-6.5c-0.59922-0.0207-1.6062-1.1716-2.2377-2.5577-0.63153-1.386-2.2788-2.9499-3.6605-3.4752-1.38-0.52-2.51-1.55-2.51-2.28 0-0.73024-2.1375-2.4748-4.75-3.8769s-5.337-3.7407-6.0546-5.197c-0.72-1.46-1.95-2.65-2.73-2.65-0.78338 0-3.8601-2.475-6.8372-5.5-2.977-3.025-5.8833-5.5-6.4584-5.5-1.0684 0-16.578-14.198-21.144-19.355-2.8215-3.1872-3.8483-4.2038-16.283-16.122-4.8157-4.6156-9.6532-8.6767-10.75-9.0248-1.1-0.35-1.997-1.19-1.997-1.86 0-1.65-9.202-10.25-11.873-11.1-1.17-0.37-2.127-1.32-2.127-2.11s-0.381-1.43-0.847-1.43c-0.46569 0-5.3032-4.2621-10.75-9.4714s-10.44-9.4843-11.097-9.5c-0.65631-0.0157-1.7813-0.85425-2.5-1.8634-0.71869-1.0091-4.6672-4.4239-8.7746-7.5885-4.1073-3.1646-8.511-7.2889-9.7861-9.1653-1.275-1.8763-2.6395-3.4146-3.0321-3.4183-2.255-0.03-5.2243-7.33-6.7025-16.5-0.8869-5.5-2.0079-12.25-2.4913-15-0.4833-2.75-1.3829-7.92-1.9991-11.5-1.6743-9.71-2.8585-44.02-1.878-54.4 0.4725-5.01 1.3083-15.18 1.8572-22.6 0.549-7.42 1.4836-18.22 2.077-24s1.2958-15.68 1.5611-22 0.9053-11.93 1.4224-12.45 0.9402-2.86 0.9402-5.19c0-2.3325 0.45-4.5191 1-4.859 0.55-0.33992 1.011-2.504 1.0244-4.809 0.01345-2.305 0.49832-6.216 1.0775-8.691s2.1092-10.35 3.4-17.5c2.5293-14.01 3.0836-16.278 8.0655-33 1.8024-6.05 3.5757-12.785 3.9407-14.966 0.36499-2.1814 1.4443-5.1064 2.3986-6.5 2.1957-3.2066 6.526-12.492 10.042-21.534 1.4973-3.85 3.9213-8.7503 5.3866-10.89 1.465-2.14 2.664-4.5 2.664-5.25s0.401-1.36 0.892-1.36c0.49038 0 1.1837-1.164 1.5408-2.5866 0.8633-3.4397 7.0447-13.31 12.318-19.669 2.3375-2.8188 4.25-5.7175 4.25-6.4415 0-0.72401 1.125-2.2946 2.5-3.4901 1.375-1.1956 2.5-2.7878 2.5-3.5384 0-0.75058 2.8125-4.2057 6.25-7.6781s7.6596-7.8396 9.3825-9.705c8.6087-9.3204 13.359-12.061 20.07-11.577 3.9445 0.28441 7.1074-0.02231 8.6884-0.84255 1.3673-0.70937 6.4512-1.7741 11.298-2.366 15.863-1.9375 29.773-3.4098 31.812-3.3671 1.1 0.02307 5.6-0.34841 10-0.82552s16.131-1.5437 26.069-2.3703c9.938-0.82653 53.588-6.2216 97-11.989 89.27-11.858 127.19-16.855 219.93-28.979 35.75-4.674 105.05-13.741 154-20.15 98.22-12.861 97.29-12.799 106.27-7.028 2.05 1.3171 65.15 38.052 140.23 81.632 129.83 75.366 149.15 86.792 150.53 89.013 0.326 0.52761 1.3789 0.95928 2.3395 0.95928 0.9607 0 3.2967 1.1563 5.191 2.5695 1.8944 1.4132 4.947 3.207 6.7837 3.9863 1.8367 0.77927 4.6696 2.5362 6.2955 3.9042 1.6258 1.3681 4.6473 2.9428 6.7145 3.4994 2.0671 0.55662 5.2471 2.3411 7.0666 3.9655 1.8194 1.6244 4.7201 3.6806 6.446 4.5694 4.253 2.19 9.0598 5.1132 15.682 9.5369 3.0494 2.0369 6.6494 4.0414 8 4.4544 1.3507 0.41302 3.1307 1.3236 3.9557 2.0234 2.9047 2.4642 22.538 14.209 25.004 14.958 1.373 0.41684 3.6213 1.7946 4.9963 3.0618 1.375 1.2671 4.525 3.4029 7 4.7461 15.456 8.3886 19.968 11.69 20.036 14.662 0.02 0.8596 3.6128 5.3879 7.9844 10.063 9.2947 9.9397 10.862 15.449 5.2296 18.38-1.5125 0.78709-5.9 3.7626-9.75 6.6123-6.4423 4.7684-14.109 9.008-16.29 9.008-0.495 0-1.7144 0.9-2.7099 2s-2.2085 2-2.6955 2c-0.8968 0-6.1932 3.5248-8.5172 5.6683-0.6967 0.64255-2.6334 1.4684-4.3037 1.8353-14.008 3.0767-31.359 23.304-28.703 33.462 0.3698 1.4138-0.2805 3.0084-1.967 4.8234-6.1581 6.6277-8.1016 16.32-4.6571 23.225 1.6301 3.2675 1.6141 3.3572-1 5.6057-2.4867 2.139-2.6616 2.8475-2.736 11.083-0.044 4.8389-0.3813 12.413-0.75 16.832-1.527 18.296-0.4799 19.228 21.83 19.414 18.184 0.15236 25.102 10.726 13.175 20.138-1.6826 1.3279-3.6534 3.5701-4.3794 4.9827-1.3712 2.6676-11.232 11.932-12.7 11.932-0.4604 0-2.5829 1.8452-4.7166 4.1004-5.2581 5.5576-4.9901 5.338-12.708 10.411-3.7555 2.4687-7.6302 4.4885-8.6104 4.4885s-3.3281 1.0125-5.2175 2.25c-5.7779 3.7842-9.5814 5.75-11.126 5.75-2.971 0-4.1202 3.1167-4.4074 11.953-0.3731 11.483 0.3541 12.13 16.952 15.077 3.7193 0.6605 7.0084 1.5989 7.309 2.0853 0.3007 0.48644 1.443 0.88443 2.5386 0.88443 2.7723 0 4.89 5.5488 4.89 12.813 0 9.9348 3.1123 11.101 28.25 10.588 20.282-0.41448 20.904-0.19595 18.858 6.6313-0.6539 2.1826-1.5859 3.9683-2.0712 3.9683s-1.4021 1.575-2.0374 3.5-1.5399 3.5-2.0102 3.5c-0.4702 0-1.1173 0.82623-1.4378 1.8361-5.5822 17.588-50.739 25.954-56.618 10.489-1.2517-3.2922-3.113-2.9567-2.3563 0.42476 0.3385 1.5125 2.0346 3.9867 3.7691 5.4982s4.8103 4.3466 6.8351 6.3002c4.4881 4.3301 7.4634 5.2833 20.318 6.5092 20.288 1.9347 21.632 2.51 23.64 10.118 1.1696 4.4296 1.0947 4.8774-1.4223 8.5094-1.7608 2.5409-2.4622 4.5777-2.0799 6.0397 0.4193 1.6034-0.4085 3.3571-3.0307 6.4206-1.9842 2.318-3.6076 4.776-3.6076 5.4621 0 0.68608-1.125 2.1323-2.5 3.2139s-2.5 2.7521-2.5 3.7123c0 0.96021-0.7683 2.3076-1.7073 2.9942-0.939 0.68663-2.1927 2.6899-2.7859 4.4518-3.68 10.93-13.928 16.815-23.722 13.624-2.3567-0.7679-6.0671-1.7061-8.2454-2.0848-3.9251-0.68247-19.527-15.149-19.536-18.114 0-0.60226-0.9034-1.9095-2.0034-2.905-1.1-0.99549-2-2.3455-2-3 0-0.65451-0.9658-2.0473-2.1462-3.095-1.8844-1.6726-4.0927-4.7118-11.098-15.274-0.9596-1.4468-1.7471-3.5802-1.75-4.741 0-1.1608-1.0326-3.6358-2.2882-5.5-2.3956-3.557-6.3581-15.242-7.7617-22.89-0.4543-2.475-1.5252-6.75-2.3799-9.5-2.3049-7.4167-2.0633-9.9352 2.3428-24.422 1.4692-4.8304 0.3374-5.6096-8.6134-5.9296-5.0003-0.17877-10.29-1.1385-14.72-2.6708-3.8031-1.3155-7.3392-2.1295-7.8579-1.8089-0.5187 0.32058-3.3507-0.23551-6.2933-1.2357-5.0304-1.7099-5.462-1.7174-7.2208-0.12573-1.0288 0.93107-2.7351 1.7205-3.7918 1.7542s-4.6213 1.8102-7.9213 3.9476-7.7718 4.862-9.9373 6.0546c-2.1655 1.1925-4.5602 2.7911-5.3214 3.5524-0.74 0.79-2.18 1.41-3.17 1.41-0.99337 0-2.41 0.72757-3.148 1.6168-0.73802 0.88926-3.6795 2.7237-6.5366 4.0764-2.8571 1.3528-5.9782 3.3252-6.9356 4.3832-0.95744 1.058-2.355 1.9236-3.1057 1.9236-0.75069 0-3.2684 1.2223-5.595 2.7162s-6.6172 3.9214-9.5347 5.3944-6.0675 3.3366-7 4.1412c-0.9325 0.80467-6.6455 4.0237-12.695 7.1534-6.05 3.1297-11.5 6.3438-12.11 7.1426-0.61064 0.79874-1.5534 1.4523-2.095 1.4523-0.54162 0-1.7992 0.9-2.7947 2-0.99549 1.1-2.559 2-3.4744 2-1.5466 0-10.6 6.0505-14.034 9.3786-0.82949 0.80406-2.8545 1.7976-4.5 2.2078-3.2192 0.80259-4.9904 1.7853-14.097 7.8209-3.2423 2.149-8.1632 4.914-10.935 6.1445-2.772 1.2305-5.5702 2.8761-6.2182 3.6569-0.64802 0.78081-3.555 2.4542-6.46 3.7187-6.3387 2.7591-6.179 2.6713-12.916 7.1018-5.6687 3.7282-8.6575 5.4626-18.366 10.658-15.09 8.08-17.66 9.31-19.51 9.31-1.72 0-1.97 0.69-1.97 5.54 0 4.9426 0.18736 5.4403 1.75 4.6489 3.2949-1.6688 14.042-3.414 17.897-2.9064 2.119 0.27902 10.378 1.2573 18.353 2.174 7.975 0.91665 15.85 2.0606 17.5 2.5421 7.6916 2.2446 62.39 4.3665 74 2.8706 12.157-1.5664 23.356-4.1548 27.418-6.337 7.6929-4.1328 12.616-4.4135 13.636-0.77733 1.0324 3.681 0.65637 5.4549-1.5369 7.25-1.008 0.825-3.2362 3.75-4.9515 6.5-2.9471 4.7248-6.8976 8.3483-15.173 13.917-1.9836 1.3348-5.7446 5.4232-8.3578 9.0853-8.4635 11.861-21.35 15.034-19.08 4.6981 0.89408-4.0707-1.1926-5.5775-6.1297-4.4262-3.9953 0.93166-18.423 0.69872-24.145-0.38982-3.3014-0.6281-3.3156-0.61399-2.7641 2.7422 0.60414 3.6761-1.8172 9.66-4.4174 10.917-0.825 0.39875-2.8481 1.3396-4.4957 2.0909-9.4888 4.3264-25.456 19.231-30.508 28.479-1.168 2.1379-2.8861 4.562-3.818 5.387-0.93185 0.825-3.4906 3.9646-5.6862 6.9769-2.1955 3.0123-7.0595 9.0873-10.809 13.5-3.7493 4.4127-7.5588 9.2606-8.4656 10.773-2.4196 4.0358-2.1515 4.322-11.481-12.257-1.3949-2.4789-5.9887-7.6539-10.208-11.5-5.6246-5.1267-8.5839-8.7816-11.089-13.695-1.879-3.6861-4.7717-8.2455-6.4281-10.132-1.66-1.88-3.02-3.95-3.02-4.59 0-1.6077-8.8333-14.382-10.659-15.414-2.7-1.5265-16.602-1.4596-20.068 0.0966-2.2244 0.99891-4.7084 1.2398-8 0.77584-9.1334-1.2874-25.384-1.6855-26.629-0.65233-0.67021 0.55623-3.4519 1.0993-6.1816 1.2068-2.7297 0.10754-5.863 0.52653-6.963 0.93109-1.1 0.40455-4.8854 1.2737-8.412 1.9315-3.744 0.69833-7.7361 2.2059-9.5944 3.6233-1.75 1.34-3.65 2.43-4.23 2.43-0.57786 0-2.1104 1.146-3.4056 2.5467s-4.0621 3.4448-6.1486 4.5426-4.7552 3.1017-5.9303 4.4533c-1.1752 1.3516-2.762 2.4574-3.5262 2.4574-0.76422 0-3.4863 1.4625-6.0491 3.25-6.2411 4.353-24.077 15.459-27.201 16.938-1.375 0.65071-4.075 2.6316-6 4.4021-1.925 1.7704-7.1 5.1083-11.5 7.4175s-8.9 4.996-10 5.9708c-2.848 2.5237-6.0259 4.0222-8.5299 4.0222-2.376 0-7.7252 3.3972-9.7768 6.2091-0.71869 0.98501-1.7744 1.7909-2.346 1.7909-0.57161 0-4.3583 1.575-8.4148 3.5-4.0566 1.925-8.2427 3.5-9.3024 3.5-2.4904 0-13.388 5.7218-14.43 7.5764-0.43983 0.78296-1.3398 1.4277-2 1.4327-0.66017 0.005-3.4503 1.116-6.2003 2.4687-2.75 1.3528-5.7609 2.4737-6.691 2.4909-0.93004 0.0172-1.9384 0.43155-2.2407 0.92078-1.4194 2.2966-17.512 3.6651-20.068 1.7065zm15.251-12.87c1.0488-0.94915 2.5465-1.7384 3.3282-1.7538 0.78169-0.0155 4.1213-1.5586 7.4213-3.4293 3.3-1.8706 9.5469-5.2377 13.882-7.4824s9.7112-5.4265 11.947-7.0707 4.7639-2.9995 5.618-3.0117c0.85415-0.0122 2.678-0.90222 4.053-1.9778 1.375-1.0755 2.8091-1.9655 3.1868-1.9778 1.187-0.0384 14.171-9.1149 17.361-12.136 1.6762-1.5876 3.5336-2.8865 4.1276-2.8865 0.59397 0 1.6303-0.66309 2.3029-1.4735 0.67261-0.81044 2.7706-1.7639 4.6621-2.1187 2.2379-0.41982 4.3063-1.7821 5.9216-3.8998 1.486-1.9483 4.9822-4.3692 8.7103-6.0314 3.4254-1.5272 6.4529-3.084 6.7279-3.4595 0.275-0.37551 4.1-2.8383 8.5-5.473 4.4-2.6346 8.7906-5.4824 9.7569-6.3284 2.2388-1.96 3.4988-2.6844 14.871-8.5494 5.1548-2.6585 9.7999-5.246 10.322-5.75 0.5225-0.50397 1.9626-0.9163 3.2003-0.9163s2.6282-0.67527 3.0901-1.5006c0.46187-0.82533 3.0903-2.2932 5.841-3.2618 2.7507-0.96869 7.2326-3.1636 9.9599-4.8776s6.3087-3.4306 7.9587-3.8146c1.65-0.38404 5.475-2.5748 8.5-4.8684 7.5133-5.6968 16.698-8.5919 18.42-5.806 0.8016 1.297 6.6987 2.2622 7.973 1.305 1.7608-1.3227 9.6-3.9218 15.902-5.2724 7.3572-1.5767 6.7528 0.36633 9.7676-31.403 0.6263-6.6 1.7269-14.475 2.4458-17.5 0.71892-3.025 1.631-7.75 2.0268-10.5 0.39585-2.75 1.1434-5.8163 1.6613-6.8139 0.63019-1.214 0.54742-2.2888-0.25026-3.25-1.5404-1.8561-2.947-1.8367-2.947 0.0407 0 2.1147-9.3685 9.2299-13.235 10.052-1.7957 0.3817-3.9398 1.2657-4.7648 1.9644-0.825 0.69874-2.5125 1.579-3.75 1.9561-2.8304 0.86255-2.8861 3.2152-0.12879 5.448 2.4379 1.9741 0.54117 5.1029-3.0934 5.1029-1.0061 0-5.3018 1.7758-9.546 3.9463s-9.1263 4.2366-10.849 4.5914c-1.7229 0.3548-4.7076 1.6521-6.6326 2.883-1.925 1.2308-5.3 2.7323-7.5 3.3366-7.9495 2.1836-13.032 4.3619-14.66 6.2835-0.91316 1.0776-2.5384 1.9592-3.6117 1.9592-1.6782 0-9.4848 3.1196-18.228 7.284-1.375 0.65493-4.075 2.4034-6 3.8856-1.925 1.4821-5.525 3.4921-8 4.4666-2.475 0.97447-7.875 3.8225-12 6.3288-4.125 2.5064-8.6965 5.0863-10.159 5.733-2.5138 1.1118-11.765 7.7581-12.841 9.2258-1.1095 1.5126-7.7039 4.9035-10.818 5.5625-1.8247 0.3862-3.5693 1.3582-3.877 2.1599-0.75886 1.9776-10.559 8.3835-18.734 12.246-3.6813 1.7393-8.2426 4.7118-10.136 6.6054-4.46 4.45-13.8 11.5-15.25 11.5-0.61818 0-1.5795 0.85126-2.1364 1.8917-0.55682 1.0404-3.4976 3.2943-6.5352 5.0086-3.0375 1.7143-5.5228 3.5084-5.5228 3.987 0 0.47857-1.2904 1.4046-2.8675 2.0579-1.5771 0.65326-4.8396 3.1738-7.25 5.6012s-4.6796 4.4225-5.0426 4.4336c-0.93022 0.0283-10.864 10.135-13.708 13.948-2.49 3.3372-4.7293 3.6657-6.4425 0.94496-2.9353-4.6616 12.111-23.214 25.445-31.372 4.5934-2.8108 41.855-32.196 42.344-33.393 0.77346-1.8946-0.27507-2.7494-1.9279-1.5715-5.7354 4.0873-43.182 33.375-45.423 35.527-0.89503 0.85917-3.7648 3.2759-6.3773 5.3705s-4.75 4.2363-4.75 4.7593c0 3.053-7.9168 5.3698-9.5146 2.7844-1.2602-2.0391 2.613-9.7744 5.4913-10.967 1.5202-0.62967 3.2668-2.2485 3.8814-3.5974 0.61459-1.3489 2.2535-2.8844 3.642-3.4123 1.3885-0.52791 3.0184-1.9814 3.6219-3.2299 1.0276-2.1259 13.659-12.923 17.994-15.381 1.0776-0.611 2.9549-2.0375 4.1718-3.17s4.2375-2.8353 6.7125-3.784c2.475-0.94869 6.3-3.3584 8.5-5.355 4.1203-3.7393 10.007-8.08 10.957-8.08 0.296 0 2.7305-1.575 5.4099-3.5s5.343-3.5 5.919-3.5c0.57598 0 1.1972-0.3375 1.3806-0.75 0.65809-1.4807 11.451-9.1133 17.333-12.258 6.9004-3.6887 8.0309-4.5848 4.5-3.5672-1.375 0.39629-3.4567 0.81434-4.626 0.92901-2.3615 0.23157-13.661 6.9332-16.534 9.8058-1.012 1.012-2.7604 1.8399-3.8854 1.8399s-3.1536 1.1081-4.508 2.4625-4.443 3.6232-6.8636 5.0417c-2.4206 1.4186-4.6104 3.1229-4.8664 3.7875-0.25594 0.66456-2.4592 1.7946-4.8962 2.5112-2.437 0.71657-6.7123 3.0296-9.5007 5.1401s-6.7414 4.4417-8.7845 5.1804c-2.043 0.73877-4.1401 2.1382-4.6601 3.1099-0.52002 0.97167-1.6088 1.7667-2.4194 1.7667-0.81065 0-2.8722 1.3363-4.5813 2.9696s-4.0675 3.2579-5.2409 3.6103-3.5371 1.9723-5.2526 3.5997-3.7951 3.0582-4.6213 3.1794c-0.82623 0.12126-6.1726 4.5878-11.881 9.9255-7.5982 7.105-11.075 9.7064-12.976 9.7102-3.0343 0.006-11.37-7.239-12.395-10.772-0.36306-1.2526-2.1714-3.927-4.0185-5.9432s-3.7755-4.5914-4.2854-5.7226c-1.77-3.93-3.2-9.22-3.2-11.82 0-1.441-0.45-2.8981-1-3.238-1.811-1.1192-1.1689-18.202 0.93473-24.869 1.0641-3.3722 2.5856-9.2813 3.3811-13.131 0.7955-3.85 1.9222-8.35 2.5037-10 0.58153-1.65 1.5809-5.025 2.2208-7.5 0.63993-2.475 2.315-7.875 3.7224-12s2.8805-9.3 3.2734-11.5c0.62935-3.5232 2.6186-9.8322 5.0448-16 0.43271-1.1 1.3288-3.8 1.9914-6 0.66257-2.2 1.5713-4.9 2.0194-6 2.3345-5.7305 7.903-23.754 8.939-28.933 1.9746-9.8706 13.929-34.735 19.219-39.976 0.9625-0.95346 1.75-2.3965 1.75-3.2068 0-1.3756 1.8729-3.6254 10.309-12.384 4.132-4.29 11.727-9 14.512-9 1.1337 0 2.3394-0.45 2.6793-1 1.5896-2.572 8.6903-0.0725 10.39 3.6573 3.7243 8.174-0.93827 14.004-7.0721 8.8427-5.5005-4.6283-19.906 6.6272-30.421 23.769-4.6108 7.5166-3.8045 12.582 1.4115 8.8683 1.658-1.1806 5.1921-3.1799 7.8534-4.4429s6.4138-3.2841 8.3388-4.4914 4.2755-2.1967 5.2232-2.1988c0.94779-0.002 3.8728-0.96959 6.5-2.1501s5.9018-2.5826 7.2768-3.1159c1.375-0.53326 3.175-1.3685 4-1.8561 0.825-0.48757 2.625-1.3474 4-1.9107 1.375-0.56332 4.525-2.0679 7-3.3435s7.2-2.9057 10.5-3.6225c16.565-3.5979 18.443-4.3859 18.485-7.755 0.008-0.6875-0.77219-1.2683-1.7347-1.2906-0.9625-0.0223-3.308-1.3724-5.2122-3-1.91-1.64-4.17-2.97-5.03-2.97-2.1367 0-12.394-10.674-14.415-15-0.89906-1.925-3.425-4.7667-5.6132-6.3148-2.1882-1.5482-3.9786-3.4607-3.9786-4.25 0-0.78933-0.5625-1.4458-1.25-1.4588s-2.5587-1.7929-4.1582-3.9553c-1.7056-2.3058-4.0536-4.1832-5.678-4.54-1.5234-0.33459-5.6453-3.414-9.1598-6.843-3.5145-3.4291-8.4886-7.4646-11.054-8.9677-2.565-1.5032-5.1381-3.6196-5.718-4.7033-0.57996-1.0837-2.5007-2.5936-4.2684-3.3554-1.7677-0.76182-5.6889-3.5261-8.7139-6.1429s-7.2185-5.8429-9.3188-7.1692c-2.1004-1.3263-6.032-4.6362-8.7369-7.3554-2.71-2.72-5.51-4.94-6.23-4.94-0.71673 0-3.2212-1.7358-5.5656-3.8574-2.3443-2.1216-6.0097-4.3809-8.1453-5.0208-2.1834-0.65418-5.5333-2.905-7.6536-5.1426-2.08-2.19-4.37-3.98-5.1-3.98-0.72893 0-1.6208-0.7875-1.982-1.75-0.8136-2.1683-2.0581-3.2151-10.514-8.8432-3.7031-2.4649-8.1358-6.2273-9.8505-8.361s-4.1952-4.1499-5.5123-4.4804c-1.3171-0.33057-4.9826-3.068-8.1457-6.0832-3.16-3.01-6.23-5.48-6.82-5.48-0.58905 0-3.5158-2.7938-6.5038-6.2085-8.46-9.66-10.67-11.79-12.25-11.79s-8.69-7.37-8.69-9c0-0.55-0.69-1-1.53-1-0.83888 0-4.4275-2.7-7.9748-6-3.5472-3.3-6.9261-6-7.5085-6-0.58242 0-1.9345-1.4839-3.0045-3.2975-1.2397-2.1011-4.2206-4.5036-8.2163-6.6219-3.4489-1.8284-7.1707-4.1141-8.2707-5.0793-1.1-0.96523-3.6515-2.2834-5.67-2.9293-2.0185-0.64588-4.2111-1.8263-4.8724-2.6232-0.65-0.8-1.76-1.45-2.45-1.45-0.69239 0-2.5498-1.2726-4.1276-2.8281-1.5778-1.5554-4.8937-3.5791-7.3687-4.4971-2.475-0.91796-6.0449-2.6828-7.9332-3.9219-6.9832-4.5825-12.7-7.8703-17.663-10.158-2.8026-1.2918-5.3376-2.9791-5.6332-3.7494-0.29561-0.77035-3.0746-2.6843-6.1756-4.2533s-5.8513-3.1975-6.1118-3.6191c-0.44748-0.72404-5.2887-3.461-11.984-6.7749-1.65-0.81672-3.9335-2.3248-5.0745-3.3512-2.04-1.84-13.24-8.85-14.13-8.85-0.24966 0-3.4423-2.25-7.0948-5s-7.1489-5-7.7699-5c-0.62099 0-1.9863-0.94788-3.0341-2.1064s-3.705-3.015-5.905-4.1256-4.675-2.6699-5.5-3.4651c-0.825-0.79525-4.875-3.6114-9-6.2582-4.125-2.6467-8.5909-5.9895-9.9243-7.4285-1.33-1.44-3.01-2.62-3.74-2.62-0.72755 0-3.0116-1.4812-5.0757-3.2914-2.0641-1.8103-5.0034-3.8316-6.5317-4.4917-1.5284-0.66014-3.6985-2.759-4.8226-4.6642s-2.901-3.736-3.9487-4.0686c-1.0477-0.33253-3.7251-2.1254-5.9499-3.9841s-4.9349-3.662-6.0225-4.0071c-1.09-0.34-1.98-1.04-1.98-1.56 0-0.51-0.65-0.93-1.44-0.93-0.79106 0-2.9286-1.3877-4.75-3.0838s-5.5617-4.6262-8.3117-6.5113c-9.4075-6.4488-12.725-9.0549-13.666-10.736-0.51786-0.92537-2.635-2.5464-4.7048-3.6024-2.0698-1.0559-4.3812-2.6645-5.1366-3.5746-0.75529-0.91008-4.003-2.9822-7.2172-4.6047s-6.8097-4.0608-7.9902-5.4184c-1.1804-1.3576-2.6276-2.4741-3.2159-2.481-1.0842-0.0128-12.819-9.0803-17.771-13.731-5.276-4.96-4.528-11.26 1.34-11.26 1.5901 0 3.7334-0.52599 4.7628-1.1689 2.8995-1.8108 7.7315 0.57026 8.4502 4.1639 0.40697 2.0348 2.0733 3.8186 5.8598 6.2729 2.9101 1.8862 9.7912 6.3665 15.291 9.9562 5.5 3.5897 11.912 7.4919 14.25 8.6716 2.3375 1.1797 4.25 2.5417 4.25 3.0267 0 0.48502 1.3403 1.3491 2.9785 1.9202 1.6382 0.57107 3.5507 1.5427 4.25 2.1591 0.69933 0.61644 2.4663 1.8807 3.9267 2.8095 11.302 7.1884 22.845 15.386 22.845 16.225 0 0.55701 1.103 1.4321 2.451 1.9446 2.935 1.1159 16.264 10.883 18.954 13.89 1.0477 1.1709 2.4412 2.1289 3.0966 2.1289 0.65538 0 2.7429 1.5066 4.6389 3.348s3.9285 3.5289 4.5166 3.75c0.5881 0.22112 2.8184 1.8549 4.9561 3.6306 7.7081 6.4027 15.372 12.271 16.025 12.271 0.73017 0 7.6956 4.995 12.694 9.1034 1.7422 1.4318 4.2926 3.1908 5.6676 3.9087 1.375 0.71794 3.0898 2.1365 3.8107 3.1524 0.72089 1.0159 2.7459 2.5698 4.5 3.4532 1.7541 0.88344 4.5393 2.8507 6.1893 4.3716 2.6795 2.47 14.719 10.897 32 22.398 3.3 2.1962 6.5356 4.4701 7.1903 5.0531 0.65464 0.58297 2.8258 2.1849 4.8247 3.5599s5.6297 3.9625 8.0684 5.75 4.8397 3.25 5.3355 3.25c0.49585 0 3.1787 1.8 5.9619 4s5.4111 3.9992 5.8398 3.9982c1.2768-0.003 20.279 13.282 20.279 14.177 0 0.4534 0.53642 0.82437 1.192 0.82437 1.7066 0 29.765 17.993 31.513 20.208 0.56078 0.71072 1.3192 2.5456 1.6854 4.0776 0.40361 1.6885 1.6494 3.1593 3.1635 3.735 1.3737 0.52229 2.7497 1.6064 3.0578 2.4091 0.30803 0.80273 3.109 3.3801 6.2244 5.7275s7.9143 6.3256 10.664 8.8404c5.3639 4.9052 18.346 14.985 24.335 18.895 2.0156 1.3158 7.7147 5.6445 12.665 9.6193 9.0777 7.2893 22.883 15.744 27.5 16.842 1.375 0.32691 7.9398 5.4436 14.589 11.37 6.6487 5.9268 15.199 12.931 19 15.565 14.34 9.937 17.243 11.774 35.911 22.722 3.85 2.2578 8.35 4.9152 10 5.9053 1.65 0.99008 4.7771 2.8065 6.949 4.0365 2.172 1.23 6.5589 4.2447 9.7488 6.6992 5.504 4.2352 5.9132 4.3834 8.0235 2.9053 2.5236-1.7676 14.741-2.1834 17.695-0.60224 1.8778 1.005 19.852-0.4382 23.584-1.8936 5.59-2.21 21.41-7.09 22.88-7.09 0.92923 0 2.7705-0.7083 4.0917-1.574 2.2624-1.4824 5.2873-2.4597 18.527-5.9864 3.025-0.80574 6.4-1.8628 7.5-2.3491 5.84-2.58 14.64-5.09 17.87-5.09 2.0135 0 4.4423-0.41027 5.3973-0.91171 0.95504-0.50144 4.4364-1.4655 7.7364-2.1424 3.3-0.67687 8.1323-1.8917 10.738-2.6996 2.6061-0.80791 5.841-1.1922 7.1887-0.85395s2.6884 0.22976 2.9794-0.24107c0.29099-0.47083 3.5492-1.1381 7.2404-1.4828 8.3924-0.78369 11.974-8.6685 3.9377-8.6685-1.0599 0-2.7937-0.7875-3.8528-1.75-1.9769-1.7966-14.65-9.0113-20.526-11.686-1.812-0.82464-4.6591-2.8639-6.3269-4.5318-1.67-1.67-3.43-3.03-3.91-3.03-0.48012 0-2.9559-1.4058-5.5018-3.124s-7.1809-4.3774-10.3-5.9094c-9.1375-4.4879-11.816-9.5126-6.2892-11.798 1.3468-0.55681 6.0256-3.2073 16.118-9.1304 8.1635-4.7911 41.456-11.723 54-11.243 18.023 0.6894 34.93 10.129 18.25 10.189-7.6715 0.0276 2.6838 14.561 16.75 23.508 4.2454 2.7003 8.6764 6.8923 11.9 11.258 1.3198 1.7875 2.986 3.2499 3.7029 3.2499 0.71682 0 2.7498 1.8 4.5178 4 3.9251 4.8843 3.5028 4.8818 13.345 0.0784 4.4193-2.1569 9.3851-4.2439 11.035-4.6379 1.65-0.39395 3.5046-1.1113 4.1214-1.5941 0.61676-0.4828 3.3753-1.5472 6.1302-2.3653 2.7548-0.8181 5.5678-2.161 6.2511-2.9843 0.68325-0.82326 1.8485-1.4968 2.5894-1.4968 0.74092 0 3.0105-0.93426 5.0435-2.0761 2.033-1.1419 6.2092-2.9974 9.2804-4.1235 3.0712-1.126 6.0116-2.4418 6.534-2.9239 0.5225-0.48208 1.704-0.87651 2.6256-0.87651 0.92156 0 4.0941-1.0741 7.05-2.3868 7.1843-3.1906 18.458-8.3716 23.312-10.713 2.1658-1.0448 4.2934-1.8997 4.7281-1.8997 0.43463 0 4.0626-1.5129 8.0622-3.3619s9.5219-4.1711 12.272-5.1601c2.75-0.989 5.4996-2.4011 6.1102-3.1381 0.61064-0.73694 1.8216-1.3399 2.691-1.3399s1.8547-0.44322 2.1895-0.98494c1.418-2.2944-21.369 5.5199-38.186 13.095-2.3073 1.0393-5.0298 1.8897-6.05 1.8897s-2.3804 0.52554-3.0227 1.1679c-1.196 1.196-3.9519 2.3608-12.732 5.3812-2.75 0.94599-6.8 2.5529-9 3.5709s-7.375 2.8158-11.5 3.9952-7.9275 2.536-8.45 3.0146c-0.5225 0.47863-2.5121 0.87023-4.4213 0.87023s-4.1817 0.6276-5.05 1.3947c-2.11 1.87-15.86 4.61-23.08 4.61-10.332 0-8.7127-5.2414 1.9944-6.4543 6.9906-0.79192 13.653-2.1919 22.506-4.7291 3.85-1.1034 8.8-2.4394 11-2.9688 2.2-0.52936 4.4275-1.3867 4.95-1.9051 0.5225-0.51846 1.5399-0.94265 2.2609-0.94265 0.72099 0 3.2185-0.87034 5.55-1.9341 5.917-2.6997 28.144-10.065 30.387-10.07 1.0186-0.002 3.3167-0.89682 5.107-1.9884s4.2653-1.9612 5.5-1.9325c2.7188 0.0632 22.418-6.9368 25.816-9.1738 1.3356-0.8791 4.2284-2.1752 6.4284-2.8803 2.2-0.70507 4.465-1.6475 5.0334-2.0943 0.56837-0.44679 3.9489-0.73134 7.5123-0.63233 5.2894 0.14697 7.0558-0.23074 9.621-2.0573 1.7281-1.2305 3.3757-2.2373 3.6612-2.2373 0.61249 0 25.178-11.627 35.002-16.566 3.7563-1.8887 7.4517-3.434 8.2119-3.434s4.6619-1.5355 8.6703-3.4122c8.6849-4.0661 20.129-8.5958 27.987-11.078 6.5707-2.0754 9.0511-5.51 3.9791-5.51-0.8189 0-2.8814-1.0602-4.5833-2.3561s-4.2194-2.7074-5.5944-3.1368c-1.375-0.42939-3.772-1.8441-5.3267-3.1439-1.5547-1.2997-3.4755-2.3632-4.2684-2.3632-0.793 0-3.5709-1.0854-6.1733-2.412s-7.4316-3.6117-10.732-5.0779c-3.3-1.4662-7.575-3.4751-9.5-4.4643-1.925-0.98916-5.8096-2.5477-8.6324-3.4634-14.199-4.606-4.182-15.38 19.632-21.118 3.575-0.86128 7.4-1.9682 8.5-2.4598 11.582-5.176 22.247-3.0544 31.698 6.3055 3.4375 3.4044 7.6525 7.3212 9.3669 8.704 3.9958 3.223 16.435 17.406 16.435 18.739 0 0.55788 1.8328 2.6701 4.0728 4.6938l4.0728 3.6795 3.3605-2.5632c1.8482-1.4097 3.756-2.5632 4.2393-2.5632 0.4834 0 2.651-0.85412 4.8168-1.898s5.9628-2.4282 8.4378-3.0761c8.5833-2.2471 11.896-3.4867 24.566-9.1943 2.2362-1.0073 4.7686-1.8315 5.6276-1.8315s2.122-0.675 2.8067-1.5 1.8522-1.5 2.5944-1.5 5.5246-1.9767 10.628-4.3926c9.0337-4.2769 24.63-9.6074 28.111-9.6074 4.9895 0 2.77-4.3401-6.5019-12.714l-5.6689-5.1199-9.5739 3.3779c-5.2656 1.8578-10.448 3.8455-11.515 4.417-1.0678 0.57148-3.7418 1.0391-5.9422 1.0391-4.3455 0-9.2077 1.5063-10.237 3.1715-1.1313 1.8305-9.894 2.3451-9.894 0.58104 0-2.3646 2.0833-3.5404 9.0426-5.1039 6.3424-1.4248 14.769-4.1085 18.194-5.794 0.9551-0.47006 2.3991-0.85465 3.2089-0.85465 2.3762 0 8.5033-3.3914 8.5301-4.7214 0.09-4.4612-22.738-10.66-26.425-7.1762-0.5225 0.49366-1.638 0.89757-2.4788 0.89757s-4.4633 1.07-8.05 2.3778c-12.575 4.5852-22.558 7.8441-26.521 8.6584-2.2 0.45195-7.15 1.7702-11 2.9294-13.61 4.0981-17.476 3.6994-14.099-1.4543 1.4707-2.2446 3.65-3.1212 16.099-6.4758 3.0529-0.82266 15.932-4.6574 27.271-8.1204 3.449-1.0533 6.9436-1.9151 7.7657-1.9151 0.8222 0 3.1752-0.52189 5.229-1.1598l3.7343-1.1598-5.9475-6.0675c-6.8989-7.0382-8.5117-7.3538-20.052-3.923-16.805 4.9956-57.726 8.4932-65.745 5.6193-8.0083-2.8703-6.7408-8.5132 2.5303-11.265 2.3179-0.68798 4.7878-1.7185 5.4886-2.2901 0.7008-0.57157 1.6008-0.71136 2-0.31064s-0.2867 1.5495-1.5242 2.5528c-6.7154 5.4446 10.371 7.5216 28.51 3.4657 1.2433-0.27798 4.3933-0.74737 7-1.0431 20.157-2.2866 27.228-5.0591 21.016-8.2394-2.7712-1.4186-5.3214-3.0063-9.2759-5.7749-6.7-4.68-16.8-10.42-18.4-10.42-0.9214 0-2.6137-0.65726-3.7606-1.4606-1.8098-1.2677-2.3345-1.2719-3.9725-0.0318-1.0379 0.78583-2.6808 1.4431-3.6508 1.4606-0.9699 0.0175-2.5449 0.47153-3.5 1.009-2.7588 1.5525-16.308 5.7295-21.198 6.5351-2.4539 0.40423-5.1539 1.0839-6 1.5103-0.8462 0.42646-5.1385 1.535-9.5385 2.4634-9.0082 1.9007-12.792 2.9441-20 5.5148-2.75 0.9808-7.25 2.3549-10 3.0536s-6.125 2.0317-7.5 2.9621c-1.375 0.93047-3.85 2.0038-5.5 2.3852-1.65 0.38141-5.25 1.8114-8 3.1777-6.7463 3.352-16 2.4672-16-1.5298 0-1.9322 0.70855-2.6032 3.5-3.3145 1.925-0.49052 3.9275-1.3066 4.45-1.8136 0.5225-0.50695 1.8338-0.92172 2.914-0.92172s8.0777-2.0664 15.55-4.592 17.186-5.405 21.586-6.3986 10.025-2.5215 12.5-3.3953c2.475-0.87382 11.475-2.9447 20-4.602 23.404-4.5498 27.323-5.4761 27.658-6.5381 0.4-0.93-16.4-12.47-18-12.47-0.4351 0-1.9856-0.83602-3.4455-1.8578-5.0509-3.5352-16.802-1.7583-19.732 2.9838-0.2971 0.4807-1.837 0.874-3.4221 0.874s-3.1235 0.39087-3.4188 0.8686c-0.2952 0.47773-3.667 1.177-7.4928 1.554-4.5509 0.44844-7.8115 1.3583-9.43 2.6314-1.3606 1.0703-3.033 1.946-3.7165 1.946-0.6834 0-3.6294 1.1678-6.5466 2.595-2.9172 1.4273-6.7871 2.9589-8.5997 3.4037-1.8126 0.44478-7.7956 2.4704-13.296 4.5014-16.278 6.0111-30.279 9.1497-32.208 7.2203-2.5135-2.5135-0.81988-4.4652 5.4001-6.223 3.1944-0.90275 7.158-2.1098 8.808-2.6823 1.65-0.57249 5.1174-1.6344 7.7053-2.3599 2.5879-0.72544 6.1879-1.9908 8-2.812 1.8121-0.82114 7.3447-2.7116 12.295-4.201 4.95-1.4894 10.125-3.281 11.5-3.9813 4.8233-2.4566 22.145-7.7011 31.881-9.6526 8.3926-1.6823 9.5934-2.6161 7.1552-5.5642-2.8-3.4-268.65-157.67-274-159-12.51-3.127-6.57-3.8309-272.75 32.271-161.14 21.855-254.06 34.062-254.77 33.469-0.69373-0.57574-1.4804-0.57649-2.0549-0.0019-0.512 0.512-4.7538 1.1468-9.4262 1.4108-4.6724 0.26393-11.195 0.90357-14.495 1.4214-3.3 0.51785-7.4224 0.7271-9.1609 0.46501s-6.2385 0.197-10 1.0202c-3.76 0.823-11.34 2.011-16.84 2.641-5.5 0.629-12.02 1.626-14.5 2.215-2.475 0.58947-7.2 1.2136-10.5 1.3869-7.6982 0.40428-15.07 1.3205-19.5 2.4236-1.925 0.47932-6.65 1.3966-10.5 2.0384-18.55 3.093-23.706 6.108-35.043 20.499-14.029 17.81-16.012 20.53-19.31 26.5-1.0636 1.925-2.8816 4.3572-4.0401 5.405-1.159 1.05-2.107 2.5-2.107 3.21 0 0.71555-1.2422 3.4583-2.7604 6.095-2.9142 5.0611-3.595 6.491-7.2811 15.294-1.2667 3.025-3.9789 9.1-6.0272 13.5s-4.024 9.125-4.3905 10.5c-0.73398 2.7536-1.4279 4.5768-3.9622 10.41-0.93428 2.1505-2.0911 5.7505-2.5707 8-2.8612 13.419-4.2891 19.247-5.0765 20.718-0.48902 0.91374-1.1538 4.2962-1.4773 7.5165-0.32352 3.2203-1.4289 9.4552-2.4565 13.855-3.4467 14.759-3.1334 12.706-5.8735 38.5-0.49662 4.675-1.4097 11.65-2.0292 15.5-1.5542 9.6606-3.2305 28.839-3.6709 42-0.20247 6.05-0.79853 13.475-1.3246 16.5-1.1881 6.8322 0.3584 37.41 2.6047 51.5 0.87684 5.5 1.7982 11.8 2.0476 14 0.24932 2.2 0.85721 4.4275 1.3509 4.95 0.49367 0.5225 0.9019 1.8725 0.90719 3 0.02021 4.3106 20.93 27.55 24.789 27.55 0.53266 0 1.2038 0.9 1.4915 2 0.29491 1.1277 1.364 2 2.4513 2 1.0606 0 3.067 1.2375 4.4586 2.75 2.7616 3.0013 17.129 15.262 19.394 16.55 0.775 0.44 1.408 1.31 1.408 1.94 0 1.39 4 5.76 5.28 5.76 1.6039 0 7.0836 4.8664 28.308 25.14 2.7984 2.673 5.5456 4.86 6.1049 4.86 0.55931 0 4.5697 3.4278 8.912 7.6173s10.933 10.09 14.645 13.113c3.7125 3.0224 6.75 5.8433 6.75 6.2686 0 1.3568 7.3844 8.0014 8.8923 8.0014 0.79782 0 3.296 1.9125 5.5516 4.25s6.4534 6.03 9.3286 8.2055 5.2276 4.4892 5.2276 5.1416c0 0.65236 1.018 1.4416 2.2622 1.7539 1.2442 0.31227 4.6559 2.611 7.5817 5.1084 2.9257 2.4974 5.9462 4.5406 6.7122 4.5406 0.76597 0 2.0868 1.3424 2.9353 2.9831 0.84843 1.6407 2.9975 3.724 4.7757 4.6295 1.7782 0.90552 5.5686 3.8381 8.4232 6.5169s5.6849 4.8705 6.2896 4.8705 2.7976 1.6875 4.8732 3.75c5.8694 5.8325 17.199 15.25 18.346 15.25 0.56845 0 4.0188 2.6388 7.6674 5.864s7.587 6.1617 8.752 6.5255c1.165 0.36386 2.9222 1.5501 3.905 2.636 0.98278 1.086 2.4114 1.9745 3.1747 1.9745 0.76332 0 3.5161 1.9907 6.1172 4.4238 2.6012 2.4331 5.9569 4.7319 7.4572 5.1084 1.5003 0.37654 2.7278 1.0676 2.7278 1.5358 0 1.191 5.2472 5.9321 6.5655 5.9321 0.59725 0 2.1647 1.1483 3.4833 2.5519 1.3185 1.4035 4.2095 3.3554 6.4243 4.3375 2.2148 0.98209 4.6446 2.5338 5.3994 3.4481 0.75485 0.91439 1.8041 1.6625 2.3317 1.6625 0.52759 0 2.835 1.5124 5.1276 3.3609 6.4739 5.22 37.44 24.639 39.29 24.639 0.37904 0 2.1641 1.125 3.9668 2.5s4.2077 2.5 5.3444 2.5 2.0667 0.42996 2.0667 0.95546c0 1.8166 50.536 25.841 51.768 24.61 0.64999-0.65-1.9321-2.7696-5.7677-4.7346-1.375-0.70443-3.772-2.3046-5.3267-3.5559-1.55-1.26-3.69-2.28-4.75-2.28-1.05 0-1.92-0.44-1.92-0.99 0-0.5431-1.8-2.1237-4-3.5125s-4-3.1944-4-4.0125c0-0.81-0.72-1.48-1.59-1.48-1.8029 0-6.2294-3.1721-10.117-7.25-1.4419-1.5125-3.5881-2.75-4.7693-2.75s-3.379-1.2853-4.884-2.8562-4.4774-3.4308-6.6052-4.133c-2.1278-0.70225-4.0772-2.0738-4.332-3.0479-0.56143-2.1469-9.5362-8.9034-11.873-8.938-0.91964-0.0136-3.1696-1.7618-5-3.8848s-4.9029-4.665-6.8279-5.6489-4.1121-2.6563-4.8602-3.7164c-0.74811-1.0601-4.0106-3.0769-7.25-4.4818s-5.8898-2.9708-5.8898-3.4798c0-0.50904-1.9125-1.7762-4.25-2.816s-5.0438-2.827-6.014-3.9716c-0.97021-1.1446-3.0944-2.3471-4.7204-2.6723-1.6622-0.33243-3.2179-1.4152-3.5537-2.4732-0.32853-1.0351-1.4431-2.3346-2.4768-2.8878-1.0337-0.55322-3.9556-2.8027-6.4931-4.9989s-5.2528-3.9931-6.0341-3.9931c-0.78121 0-4.4101-2.8125-8.0642-6.25s-7.6012-6.7-8.7714-7.25c-3.6737-1.7268-11.622-7.8369-11.633-8.9425-0.006-0.58163-1.1779-1.9575-2.605-3.0575-1.427-1.1-3.9399-3.2454-5.5842-4.7676-1.6442-1.5222-4.0347-3.3222-5.3122-4-1.2775-0.67783-4.1404-2.9199-6.3619-4.9824-2.24-2.06-4.52-3.75-5.1-3.75-0.57 0-1.04-0.36-1.04-0.79 0-0.43699-2.3437-2.5745-5.2082-4.75s-8.827-7.2298-13.25-11.232c-12.75-11.55-13.57-12.23-14.58-12.23-0.53 0-0.96-0.62-0.96-1.39 0-0.76233-1.5165-2.1057-3.3701-2.9853-1.8535-0.87956-4.6346-3.2571-6.1801-5.2834-5.2108-6.8317-11.742-13.837-14.104-15.127-1.29-0.7-2.35-1.94-2.35-2.76 0-0.81633-1.5328-2.2152-3.4062-3.1085-1.8734-0.89337-3.9705-2.6786-4.6601-3.9672-0.68965-1.2886-2.0317-2.5898-2.9823-2.8915-0.95062-0.30172-2.8444-1.5829-4.2085-2.8471-2.2815-2.1144-4.3358-3.3156-14.993-8.7662-2.0625-1.0549-3.75-2.2746-3.75-2.7105 0-1.1189-7.4245-5.1608-9.4798-5.1608-0.93911 0-1.9306-0.85332-2.2034-1.8963-0.29293-1.1202-2.7102-2.8522-5.9064-4.2319-2.98-1.28-5.41-2.9-5.41-3.6s-0.701-1.27-1.559-1.27c-2.022 0-8.541-5.2-14.346-11.44-2.527-2.72-6.27-6.7-8.317-8.84-3.539-3.71-5.698-9.42-4.372-11.57 2.376-3.84 13.594-1.07 13.594 3.36 0 1.2921 12.84 14.269 15.681 15.849 1.0003 0.55618 3.0908 2.2789 4.6456 3.8282s3.6765 2.817 4.7148 2.817 2.3419 0.84824 2.8967 1.885c0.55484 1.0367 2.0332 2.1515 3.2852 2.4773 1.252 0.32577 3.9516 2.1433 5.999 4.0389s4.7301 3.7664 5.9614 4.1572c1.2314 0.39082 3.5283 2 5.1043 3.5761 1.576 1.576 3.4508 2.8655 4.1662 2.8655 0.71535 0 1.8504 0.66248 2.5224 1.4722 0.67199 0.8097 3.7646 2.6256 6.8724 4.0352 3.3623 1.5251 8.0805 4.9696 11.651 8.5055 22.499 22.284 30.367 29.67 33 30.981 1.65 0.8219 5.2264 3.6344 7.9474 6.25 2.7211 2.6156 5.536 4.7556 6.2552 4.7556 0.71929 0 3.1861 2.4276 5.4819 5.3946 2.2957 2.967 6.3036 6.6384 8.9065 8.1585 2.6028 1.5201 5.241 3.8801 5.8626 5.2444 0.62161 1.3643 2.3488 3.4242 3.8383 4.5776 3.4788 2.6939 15.134 13.305 22.226 20.234 3.0346 2.9651 6.0662 5.3912 6.7368 5.3912 0.67061 0 3.4634 2.2323 6.2062 4.9607s6.3538 5.6676 8.0244 6.5315 3.5907 2.4566 4.2668 3.5393c0.67615 1.0827 1.9946 1.9685 2.9299 1.9685 0.93527 0 4.0895 2.7373 7.0094 6.083 5.03 5.79 15.85 14.92 17.66 14.92 0.46642 0 2.85 1.7622 5.2968 3.916s6.3604 4.9663 8.6968 6.25c6.0912 3.3468 7.1236 3.98 12.136 7.4434 2.475 1.7102 6.075 3.9086 8 4.8855 1.925 0.97686 3.8599 2.3901 4.2997 3.1406 0.43983 0.75049 1.2181 1.3645 1.7295 1.3645 1.1874 0 19.506 12.194 23.471 15.623 1.65 1.4272 5.25 4.138 8 6.024 5.4382 3.7296 11.385 7.8699 13.051 9.0861 1.6269 1.1879 5.6414 3.4833 8.9491 5.1169 1.65 0.81492 4.272 2.5321 5.8267 3.816s3.3002 2.3344 3.8788 2.3344c0.93981 0 5.669 3.7398 11.294 8.9317 1.1 1.0152 3.575 2.6205 5.5 3.5672 1.925 0.94677 5.075 3.1958 7 4.9979 1.925 1.802 5.3 3.8713 7.5 4.5984 2.2 0.72706 4.5938 1.7592 5.3196 2.2935 0.72577 0.53439 3.6508 1.0623 6.5 1.1731 2.8492 0.11083 6.0804 0.52193 7.1804 0.91355 1.1 0.39161 3.2326 1.1724 4.7392 1.7351 5.0692 1.8934 10.152 8.5642 8.4718 11.119-2.3695 3.6031-6.1584 5.287-8.8824 3.9477-4.2474-2.0884-9.7687-3.6704-10.446-2.9931-0.77615 0.77615 1.4248 3.716 2.782 3.716 0.50587 0 1.4633 0.46563 2.1276 1.0347 0.66428 0.5691 4.5828 3.269 8.7078 5.9997 8.1113 5.3697 14.999 10.364 16.342 11.851 0.46291 0.51236 2.3765 2.5639 4.2524 4.559l3.4108 3.6274 14.419-0.31005c11.96-0.25715 14.745-0.60442 16.326-2.0358zm13.25-26.45c-5.6598-1.0153-4.3575-4.8168 4.7892-13.98 9.8268-9.8446 16.692-15.194 25.211-19.643 2.475-1.2926 7.7487-4.2191 11.719-6.5032 3.9706-2.2842 7.635-4.153 8.143-4.153 0.50802 0 1.1873-0.68689 1.5094-1.5264 0.32216-0.83954 2.6627-2.4167 5.2012-3.5048s6.2506-3.3262 8.2491-4.9736c1.9985-1.6473 4.6296-2.9952 5.8468-2.9952s2.5196-0.49592 2.8942-1.102c0.3746-0.60612 2.0887-1.7378 3.809-2.5149 1.7204-0.77709 3.8029-1.8564 4.6279-2.3986 0.825-0.54212 2.625-1.439 4-1.9931s4.75-2.3502 7.5-3.9914c2.75-1.6411 6.0762-3.4506 7.3916-4.021 1.3154-0.57044 5.9993-2.8241 10.409-5.008 4.4093-2.184 8.644-3.9709 9.4104-3.9709 0.76638 0 5.0006-1.8 9.4095-4 4.4088-2.2 8.8247-4 9.8131-4 0.98837 0 2.8702-0.83074 4.1819-1.8461s5.7599-3.0106 9.8849-4.434c19.22-6.6319 27.708-9.7822 30.154-11.191 4.0276-2.3199 9.8457-2.0494 9.8457 0.4577 0 1.2952-1.131 2.4605-3.25 3.3485-1.7875 0.74904-4.6 2.4601-6.25 3.8024-3.4956 2.8436-7.824 4.8626-10.425 4.8626-1.0068 0-2.3907 0.675-3.0754 1.5-0.68469 0.825-2.2193 1.5-3.4102 1.5s-3.7233 1.3317-5.6276 2.9594c-1.9042 1.6276-4.3622 2.9741-5.4622 2.992-1.646 0.0269-11.051 4.2138-21 9.3486-1.1 0.56772-5.15 2.6135-9 4.5462s-8.0732 4.333-9.3849 5.3339-3.2383 1.8199-4.2814 1.8199-2.14 0.63439-2.4375 1.4098c-0.29754 0.77537-1.7185 1.7053-3.1576 2.0665-1.4392 0.36121-3.7691 1.4753-5.1776 2.4759-1.4085 1.0005-4.136 2.5366-6.061 3.4134-3.583 1.6321-5.4599 2.7065-10.21 5.8444-1.4902 0.98454-3.2405 1.7901-3.8894 1.7901-0.64894 0-3.3739 1.35-6.0555 3s-5.459 3-6.172 3c-0.71303 0-2.3608 0.99159-3.6616 2.2035-1.3009 1.2119-4.8732 3.3907-7.9386 4.8416-3.0653 1.451-6.1852 3.3775-6.933 4.2811-0.74782 0.90365-3.4478 2.6436-6 3.8665s-5.3153 2.7393-6.1403 3.3698c-0.825 0.63049-3.975 2.4493-7 4.0419s-7.4035 4.3249-9.73 6.0718c-2.3265 1.747-5.2515 3.4862-6.5 3.8649-2.8385 0.86115-6.77 4.3898-6.77 6.0764 0 1.4298-3.8986 4.4548-5.4725 4.2462-0.56512-0.0749-2.1525-0.33801-3.5275-0.58468zm145.46-101.35c-0.7957-1.2875-1.0503-1.0871 4.7802-3.7605 2.6065-1.1951 6.0674-2.1729 7.691-2.1729 1.6235 0 3.23-0.45 3.5699-1 0.33992-0.55 1.6899-1 3-1s2.6248-0.39293 2.9216-0.87318c0.57757-0.93452 7.981-4.6853 15.98-8.0957 2.6958-1.1494 6.424-3.4266 8.2848-5.0605 3.95-3.47 9.31-4.14 9.31-1.17 0 2.1047-1.8447 4.2-3.6977 4.2-0.71372 0-3.4362 1.5353-6.05 3.4117-7.38 5.3-22.52 11.59-27.89 11.59-2.503 0-5.9703 0.73926-7.7052 1.6428-5.7723 3.0063-6.6171 3.3572-8.0817 3.3572-0.80001 0-1.7512-0.47994-2.1137-1.0665zm-537.98-231.74c-2.2111-1.481-5.0236-3.7053-6.25-4.9428s-2.7924-2.2628-3.4799-2.2784-3.1307-1.7031-5.4293-3.75-6.9586-5.7466-10.356-8.2216c-10.222-7.4477-14.37-11.501-13.661-13.349 0.89508-2.3325 4.7043-2.0461 7.9805 0.60014 5.7903 4.6769 18.678 14.624 24.62 19.003 10.579 7.7953 15.192 12.007 14.889 13.595-0.48896 2.5671-3.9043 2.2975-8.3142-0.65635zm-99.19-7.44c-0.52505-0.6875-1.9325-3.3875-3.1276-6-1.697-3.71-2.688-4.75-4.532-4.75-7.016 0-9.536-7.39-5.63-16.5 2.285-5.33 2.802-24.34 1.025-37.68-0.537-4.02-1.178-15.2-1.425-24.82s-0.745-18.26-1.107-19.19c-1.404-3.6 0.817-35.38 2.604-37.26 0.497-0.52 0.903-2.27 0.903-3.88 0-5.18 5.636-13.67 9.073-13.67 3.8765 0 3.8869 2.7139 0.04085 10.59-4.0818 8.3592-4.5838 13.393-4.4285 44.41 0.25685 51.288 1.4156 58.001 7.3689 42.693 7.494-19.26 8.458-22.6 5.746-19.89-0.66 0.66-2.5124 1.2-4.1165 1.2h-2.9165l0.59211-6.25c0.32566-3.4375 0.87217-7.8934 1.2145-9.902 0.4905-2.8784 0.19316-4.0812-1.4035-5.6779-2.1809-2.1809-3.7013-9.4568-2.9087-13.92 0.71488-4.0253 5.4387-21.359 7.1958-26.404 0.83256-2.3906 1.5203-5.7824 1.5283-7.5374 0.007-1.76 0.464-3.47 1.014-3.81 1.3006-0.80384 1.3006-8.1962 0-9-0.55-0.33992-1-2.0765-1-3.859s-0.45927-3.7002-1.0206-4.2616c-1.5259-1.5259 1.8704-26.446 5.0982-37.408 1.0573-3.5905 1.9365-7.1905 1.9537-8 0.01726-0.80949 1.3673-4.1603 3-7.4463s2.9768-6.886 2.9868-8c0.01001-1.114 1.3615-4.0079 3.0033-6.4308 1.6418-2.423 3.4263-6.0439 3.9655-8.0464 5.8105-21.578 18.639-30.065 23.554-15.582 2.2176 6.5345 4.431 49.191 2.6949 51.937-0.38152 0.60348-0.81778 3.942-0.96946 7.4189-0.20765 4.7597-1.1261 8.0953-3.7172 13.5-2.2978 4.7929-3.6041 9.1722-3.9308 13.178-0.54117 6.6346-2.0146 16.334-3.6459 24-1.5621 7.341-2.8332 14.223-3.8786 21-0.50905 3.3-1.6675 9.375-2.5743 13.5-0.90683 4.125-1.8154 9.075-2.019 11-0.7047 6.6617-4.4069 27.919-6.3902 36.691-1.0954 4.845-2.4965 11.673-3.1136 15.173-0.61706 3.5002-1.508 7.1002-1.9798 8-0.47183 0.89976-1.3619 5.6859-1.978 10.636-1.93 15.508-4.2993 23.427-7.5534 25.248-0.84578 0.47332-1.652 3.4795-2.0816 7.7621-0.38566 3.8443-1.1967 7.3202-1.8024 7.7243-1.6981 1.1329-4.2537 0.89969-5.3109-0.48469zm16.186-140.04c1.0039-2.3156 2.7134-5.4829 3.7988-7.0385s2.3844-4.7056 2.8867-7c0.50229-2.2944 1.1864-5.0681 1.5203-6.1638 1.041-3.4159-2.0502-0.12377-4.6742 4.9781-1.278 2.48-2.702 4.51-3.165 4.51-0.464 0-0.843 0.59-0.843 1.31 0 0.72169-0.9 3.175-2 5.4517-2.3271 4.8165-2.6869 9.437-0.67485 8.6649 0.72883-0.27968 2.1466-2.4031 3.1505-4.7186zm9.832-75.21c2.421-5.91 4.115-15.5 2.737-15.5-0.575 0-1.045 0.69-1.045 1.54 0 0.84691-0.9 3.304-2 5.4602s-2 5.0367-2 6.4011c0 1.3645-0.45 2.7589-1 3.0989-0.55 0.33992-0.97839 2.054-0.95197 3.809l0.04803 3.191 1.9012-3.5c1.0457-1.925 2.0855-3.95 2.3108-4.5zm89.131 177.43c-1.064-1.1757-3.2856-2.8311-4.9369-3.6787-1.6513-0.84757-3.9728-2.489-5.1588-3.6476s-3.436-3.0834-5-4.2774c-1.564-1.1939-4.2585-3.3314-5.9879-4.75-1.73-1.42-3.63-2.58-4.22-2.58-0.58897 0-2.549-1.2893-4.3556-2.8651s-4.288-3.1782-5.5142-3.5608c-1.2262-0.38268-2.9509-1.9059-3.8327-3.3849-0.88183-1.479-3.3646-3.7911-5.5172-5.138-5.8208-3.642-10.107-8.403-9.3469-10.383 0.89415-2.3301 4.7456-2.081 7.0212 0.45409 1.0478 1.1672 4.1645 3.4021 6.9262 4.9663s6.5624 4.4342 8.4462 6.3777c1.8837 1.9435 4.0156 3.5337 4.7375 3.5337 0.72189 0 3.9446 2.3625 7.1616 5.25s8.547 7.1654 11.845 9.5064c9.83 6.98 16.81 15.24 12.87 15.24-0.23002 0-1.0459 0.24087-1.8131 0.53527-0.76718 0.29439-2.2654-0.42668-3.3294-1.6024zm-10.039-46.766c-2.145-1.5583-4.5176-3.5833-5.2725-4.5-0.76-0.91-1.85-1.66-2.42-1.66-0.57748 0-3.6368-2.25-6.7986-5-3.1617-2.75-6.2085-5-6.7707-5-0.56212 0-3.9394-2.475-7.5051-5.5s-7.1-5.5-7.854-5.5c-2.18 0-8.78-7.36-8.78-9.79 0-4.8756 7.997-0.56538 26.5 14.283 4.4 3.5309 9.8446 7.6368 12.099 9.1242 2.2545 1.4874 4.9545 3.9812 6 5.5418s2.3849 2.8388 2.9765 2.8403c2.444 0.007 5.7832 4.8656 4.4486 6.4736-1.7051 2.0545-2.1114 1.9745-6.6243-1.304zm287.58-0.0132c-1.9128-1.5656-4.4804-3.3761-5.7057-4.0234-2.6-1.38-14.87-10.49-17.77-13.21-5.16-4.82-14.92-11.92-16.4-11.92-0.54109 0-1.6854-1.0017-2.5429-2.226-0.85752-1.2243-2.8532-2.9118-4.4349-3.75-4.6996-2.4906-13.336-8.5715-17.619-12.405-2.2-1.9692-4.5248-3.589-5.1662-3.5996-0.64138-0.0106-3.0965-1.8192-5.4558-4.0192s-4.6058-4-4.9922-4c-0.38642 0-3.1885-2.025-6.2268-4.5s-6.0238-4.5-6.6345-4.5c-0.61066 0-3.2285-1.9125-5.8174-4.25-4.9043-4.428-7.0143-5.9328-11.207-7.9928-1.375-0.67554-4.448-3.1473-6.829-5.4928-2.39-2.34-4.95-4.26-5.71-4.26-0.75245 0-4.3408-2.25-7.974-5s-6.9598-5-7.3923-5-2.1854-1.4625-3.8954-3.25c-5.3825-5.6264-12.051-11.063-15.188-12.382-1.9672-0.82716-3.024-1.9873-3.024-3.3198 0-2.9216 4.2905-2.6912 8.4111 0.45173 1.8027 1.375 3.7577 2.5 4.3444 2.5 0.58669 0 2.1192 1.2437 3.4056 2.7638s3.9139 3.8777 5.8389 5.2391 4.85 3.774 6.5 5.3612 4.575 3.9361 6.5 5.2198c7.8753 5.2515 15.549 10.678 20.069 14.192 2.6347 2.0484 7.1093 5.0743 9.9436 6.7243s7.0086 4.6875 9.2762 6.75c2.2677 2.0625 4.4352 3.75 4.8168 3.75 1.2465 0 11.311 7.0716 14.895 10.465 1.925 1.823 4.9352 4.0366 6.6893 4.919 1.7541 0.88246 3.7831 2.4522 4.5088 3.4883 0.72573 1.0361 4.2405 3.8845 7.8107 6.3298s8.9662 6.3232 11.991 8.6176c3.025 2.2944 5.8324 4.1735 6.2386 4.1759 0.79544 0.005 1.4278 0.48932 9.7017 7.4364 2.9921 2.5123 5.7999 4.5679 6.2394 4.5679 0.43955 0 3.1813 2.1375 6.0928 4.75s6.9596 6.1929 8.9959 7.9565c5.9374 5.1424 3.7686 8.4061-2.2905 3.447zm-236.98-2.93c-1.375-0.92402-2.8379-2.2112-3.2509-2.8604-0.41302-0.64923-3.788-3.3341-7.5-5.9664s-6.8991-5.1465-7.0824-5.5871c-0.18334-0.44061-0.81486-0.8011-1.4034-0.8011-0.58852 0-3.4158-2.1375-6.2828-4.75-10.355-9.4358-17.694-15.758-18.731-16.135-2.1089-0.76706-7.9814-5.1059-11.08-8.186-1.7434-1.7333-4.9699-4.0209-7.1699-5.0836-7.3816-3.5658-9.2602-4.8307-10.908-7.3448-0.9-1.37-2.19-2.5-2.87-2.5-0.68083 0-3.033-1.5691-5.227-3.487-2.194-1.9178-4.8891-3.7816-5.9891-4.1416-2.49-0.81505-12.466-10.446-12.485-12.054-0.04386-3.5583 11.456-0.76986 15.569 3.7751 0.94946 1.0491 2.2471 1.9075 2.8836 1.9075 1.6108 0 13.22 8.742 13.874 10.448 0.29458 0.76766 2.7007 2.6384 5.347 4.1572 2.6462 1.5188 6.6209 4.3664 8.8325 6.3281s5.3036 4.4667 6.871 5.5667c5.9262 4.1589 13.608 10.644 13.608 11.488 0 0.48272 0.94422 1.1774 2.0983 1.5436 2.2746 0.72191 8.9885 6.4619 21.141 18.074 4.2565 4.0672 8.1328 7.395 8.614 7.395 1.1121 0 6.147 7.2109 6.147 8.8038 0 1.6501-2.023 1.4119-5-0.58869zm-27.516-59.012c-3.309-2.0366-8.709-5.75-12-8.2518-3.291-2.5019-6.8164-4.8676-7.8341-5.2572-1.0178-0.38956-3.0428-1.6392-4.5-2.7769-1.4572-1.1378-5.6504-3.9917-9.3183-6.3421-19.85-12.73-27.42-22.58-17.34-22.58 2.9478 0 4.4565 0.89505 8.8494 5.25 2.9127 2.8875 6.5778 6.15 8.1446 7.25 10.417 7.3134 19.267 13.769 25.644 18.707 4.0538 3.1386 9.6206 7.4298 12.371 9.536 9.6692 7.4055 6.4954 10.93-4.0164 4.4604zm39.168-5.2152c-0.97864-1.6567-3.4382-3.8629-5.4656-4.9027s-4.8113-3.1017-6.1863-4.5821-6.8875-5.5796-12.25-9.1093-9.75-6.7789-9.75-7.2205c0-0.44153-1.4625-1.5642-3.25-2.4948-1.7875-0.93062-7.075-4.4124-11.75-7.7372s-11.598-7.9343-15.384-10.243c-7.603-4.6367-8.7117-5.3637-17.231-11.298-3.237-2.2547-7.4605-4.8548-9.3855-5.7779-4.8993-2.3494-11.269-8.4782-10.607-10.205 0.92824-2.419 3.4211-1.6058 11.909 3.8848 4.5085 2.9163 9.7971 6.0458 11.753 6.9545 1.9554 0.90869 5.3297 3.0623 7.4985 4.7859s5.9689 4.0518 8.4448 5.1738c4.1464 1.8791 11.109 6.7075 13.501 9.3624 0.55 0.61042 4.15 3.225 8 5.8101 10.257 6.8871 17.213 11.972 20.286 14.829 1.4924 1.3875 4.0635 3.3478 5.7135 4.3564 1.65 1.0085 4.8 3.3643 7 5.2351s5.3997 4.5914 7.1104 6.0458 4.0732 3.4274 5.25 4.3846c3.1875 2.5925 2.833 5.7598-0.6448 5.7598-2.0358 0-3.2628-0.80984-4.5637-3.0122zm27.22-0.74c-2.9456-3.2643-11.339-10.36-17.707-14.968-3.4877-2.5241-6.836-5.675-7.4407-7.002-0.60465-1.3271-2.5149-3.0043-4.245-3.7272-1.7301-0.72288-4.4568-2.4986-6.0593-3.946-6.1631-5.5665-15.196-13.038-21.914-18.127-3.85-2.9164-8.8-7.1348-11-9.3744-2.2-2.2395-4.5711-4.0794-5.269-4.0887-0.69797-0.009-4.973-3.2867-9.5-7.2833-4.527-3.9965-9.5355-8.159-11.13-9.25s-3.8603-2.6586-5.0351-3.4836-3.6442-2.4-5.4875-3.5-5.2025-3.4613-7.4649-5.2473-6.3716-4.7706-9.1315-6.6324c-5.7293-3.8648-8.7257-8.2336-6.5637-9.5698 1.4481-0.89495 7.8346 2.1147 11.564 5.4495 1.2302 1.1 3.3631 2.675 4.7399 3.5 4.1692 2.4982 10.751 7.2971 15.134 11.033 4.0884 3.4858 13.044 10.26 17.36 13.133 4.2784 2.847 29.315 24.632 31.09 27.052 0.71869 0.97986 1.797 1.7816 2.3963 1.7816 0.59927 0 3.1899 1.9125 5.757 4.25s6.7763 5.9599 9.3537 8.0498 4.6863 4.4524 4.6863 5.25c0 0.79763 0.56662 1.4502 1.2592 1.4502 0.69254 0 4.405 2.4722 8.25 5.4938s9.4658 7.3854 12.491 9.6974c7.503 5.7345 11.254 9.5892 10.507 10.798-0.99453 1.6092-4.9164 1.1728-6.6415-0.73893zm8.0066-61.291c-0.75458-1.1224-2.947-2.5936-4.872-3.2694-4.0838-1.4336-9.1554-4.5929-10.3-6.416-0.43983-0.70071-1.3398-1.2746-2-1.2753-0.66017-0.00072-3.7926-1.8007-6.9608-4-3.1683-2.1993-6.0078-3.9987-6.31-3.9987s-2.6122-1.575-5.1333-3.5-5.1541-3.5-5.8511-3.5c-0.69702 0-2.3578-1.296-3.6908-2.8801-1.3329-1.5841-3.3429-3.1719-4.4666-3.5286-1.1237-0.35666-3.3357-1.7774-4.9154-3.1573-1.5798-1.3798-6.2473-4.383-10.372-6.6736-4.125-2.2906-9.525-6.0352-12-8.3213-2.475-2.286-7.5291-5.589-11.231-7.3399-4.1465-1.9611-7.744-4.5113-9.3687-6.6414-1.78-2.32-3.47-3.46-5.15-3.46-1.3746 0-3.9887-1.2375-5.8091-2.75-5.5704-4.6283-10.668-7.3998-15.823-8.6018-5.7733-1.3465-13.865-10.47-11.961-13.487 2.8563-4.5282 7.0388-3.9727 14.025 1.8628 2.6426 2.2073 6.6493 5.5522 8.9038 7.4332s6.9079 4.8473 10.341 6.5918c3.433 1.7445 7.6634 4.4081 9.4009 5.919 3.5293 3.0691 16.465 12.032 17.364 12.032 0.31844 0 2.8775 1.9552 5.6868 4.345 2.8093 2.3897 6.2328 4.9396 7.6078 5.6663 1.375 0.72674 3.693 2.5965 5.1512 4.155s3.3009 2.8337 4.095 2.8337c0.79409 0 2.3 0.94607 3.3464 2.1024s3.2537 2.793 4.905 3.6371c3.3056 1.6897 11.845 8.073 15.038 11.241 1.1193 1.1107 2.4099 2.0194 2.868 2.0194 0.45805 0 2.3704 1.35 4.2496 3s4.0435 3 4.8094 3c0.76594 0 2.2574 1.0994 3.3144 2.4431s3.0967 2.738 4.5328 3.0984c1.4361 0.36043 4.1916 2.5842 6.1233 4.9416 1.9318 2.3574 4.6497 4.5717 6.0398 4.9206 1.3902 0.34891 2.5276 1.3008 2.5276 2.1153 0 2.1557-2.5334 1.8122-4.128-0.55971zm578.37-13.62c-4.6249-1.8651-0.49955-6.9122 6.8182-8.3416 6.0136-1.1747 12.369-2.8172 15.432-3.9886 1.1-0.42064 7.625-2.4288 14.5-4.4625s14.425-4.5633 16.777-5.6212c2.3522-1.0579 4.9446-1.9235 5.7609-1.9235 0.81628 0 3.4434-0.92094 5.838-2.0465 3.4105-1.6031 5.9397-1.9823 11.673-1.75l7.3194 0.29654-7.4341 3.6862c-4.0888 2.0274-9.6468 4.3882-12.351 5.2462-2.7044 0.85801-5.6294 2.1506-6.5 2.8725-0.87059 0.72187-4.9579 2.3383-9.0829 3.592s-8.4 2.6727-9.5 3.1532c-1.1 0.48056-4.7 1.3841-8 2.0079-11.466 2.1675-13.471 2.6725-14.732 3.7119-0.69755 0.57487-3.7433 1.5041-6.7683 2.0649-3.025 0.56079-6.175 1.2417-7 1.5132-0.825 0.27144-2.0625 0.26669-2.75-0.0106zm62.107-4.8502c-1.19-3.09 5.62-6.49 12.99-6.49 1.3538 0 5.767-1.1254 9.8072-2.501s10.271-3.2034 13.846-4.0619 8.975-2.4 12-3.4255 8.2-2.6509 11.5-3.6119 8.2653-2.7628 11.034-4.004c7.4429-3.3366 13.643-5.3642 16.466-5.3849 1.375-0.0101 3.9734-0.91661 5.7742-2.0146 3.1321-1.9096 9.1931-2.6956 10.524-1.3648 1.3813 1.3813-1.447 4.1739-4.8794 4.8178-1.9995 0.37511-5.7242 1.6183-8.2771 2.7627-6.7068 3.0064-8.0959 3.4945-13.526 4.7527-2.6864 0.62247-6.606 2.0101-8.7102 3.0835-2.1042 1.0735-4.7498 1.9518-5.8792 1.9518s-2.8348 0.3975-3.7898 0.88333c-3.1057 1.5799-6.6101 2.9753-13.736 5.4699-3.85 1.3477-8.35 2.925-10 3.5052-3.6644 1.2885-15.294 4.5076-21.764 6.0245-6.8724 1.6112-12.675 1.4396-13.379-0.39576zm-100.36-5.99c-1.4918-1.7976 0.22042-4.5 2.8512-4.5 1.6687 0 14.345-4.4203 17.385-6.0621 0.95504-0.51583 2.4317-0.93787 3.2816-0.93787 1.497 0 11.922-3.2026 15.982-4.91 5.9338-2.4951 7.7745-3.09 9.5606-3.09 1.8993 0 2.8709-0.35995 7.6758-2.8439 1.23-0.63587 3.2775-1.1561 4.55-1.1561s2.7411-0.41945 3.2636-0.93212 2.3-1.0752 3.95-1.25c4.3252-0.4583 3.9259 2.3151-0.49844 3.4615-1.9241 0.4986-3.7241 1.2022-4 1.5636-0.83782 1.0975-4.8946 3.157-6.2187 3.157-1.3573 0-8.6068 2.7054-18.783 7.0096-3.575 1.5121-10.325 3.9959-15 5.5195s-10.698 3.6029-13.383 4.6206c-5.92 2.24-8.97 2.34-10.62 0.35zm-39.402-6.3416c-1.9552-3.1636 1.7536-4.9216 34.402-16.306 9.2383-3.2214 12.095-4.3662 16.154-6.474 1.4599-0.758 3.1701-1.3782 3.8006-1.3782 1.5207 0 17.281-6.1101 18.495-7.1705 0.5225-0.45624 2.0975-0.83121 3.5-0.83327 1.4025-0.002 3.9014-0.82791 5.5532-1.8352 4.1513-2.5316 11.073-3.3765 12.599-1.5377 0.94118 1.134 0.88022 1.3072-0.30067 0.85408-0.81468-0.31262-2.0584 0.12708-2.7639 0.97711-0.70546 0.85003-1.9497 1.5455-2.765 1.5455-0.81528 0-3.5727 1.0479-6.1276 2.3287s-6.1456 2.6271-7.9794 2.9918c-1.8338 0.36472-4.5338 1.5057-6 2.5355s-4.4658 2.4388-6.6658 3.1309c-2.2 0.69217-4.7814 1.6533-5.7364 2.1358-0.95504 0.48248-2.1792 0.87724-2.7204 0.87724-0.54116 0-3.4434 1.125-6.4495 2.5-3.006 1.375-6.0794 2.5-6.8296 2.5-0.75025 0-1.7916 0.3948-2.3141 0.87733-1.1383 1.0512-11.109 4.8148-17.623 6.6517-2.5699 0.72478-5.7199 1.881-7 2.5695-1.2801 0.68843-3.9024 1.5665-5.8274 1.9513s-4.242 1.0117-5.1488 1.3931c-0.90687 0.3814-1.9208 0.25339-2.2532-0.28447zm-32.06-12.1c-0.73-1.18 3.33-5.06 5.3-5.06 0.80232 0 3.98-0.8565 7.0614-1.9033 3.0815-1.0468 8.0777-2.649 11.103-3.5603 3.025-0.91134 11.35-3.4298 18.5-5.5965 7.15-2.1668 14.054-3.9396 15.342-3.9397 1.2882-0.00007 3.4188-0.84697 4.7347-1.882 1.4788-1.1632 4.955-2.1563 9.1032-2.6005 8.2735-0.88601 20.052-3.9114 25.864-6.6432 2.3992-1.1278 4.8779-1.7318 5.5082-1.3423 1.1025 0.68138-5.7781 3.5873-12.83 5.4187-1.8031 0.46825-3.8281 1.2703-4.5 1.7824-0.67191 0.51209-3.9216 1.5164-7.2216 2.2319-5.4094 1.1728-12.019 3.5844-16.736 6.1065-0.95504 0.5106-2.7617 0.92836-4.0148 0.92836s-3.9576 0.9-6.0099 2c-2.0524 1.1-5.0467 2-6.6542 2-1.6074 0-4.1966 0.66316-5.7536 1.4737-13.341 6.9448-37.047 13.413-38.794 10.586zm105.49 591.39c1.2068-1.9527 4.1685-5.8633 6.5816-8.6902 2.413-2.8269 4.3873-5.6413 4.3873-6.2542s1.575-2.8338 3.5-4.9355c1.925-2.1016 3.5-4.4425 3.5-5.202s1.125-2.3591 2.5-3.5546c1.375-1.1956 2.5-2.7003 2.5-3.3438 0-0.64355 1.3427-2.1991 2.9837-3.4568s4.3279-4.3813 5.9707-6.9415c2.368-3.6902 4.0128-5.0237 7.9369-6.4348 2.7224-0.97897 5.1965-2.4226 5.4979-3.2081 0.3-0.79 1.24-1.43 2.08-1.43s1.53-0.64 1.53-1.43c0-0.78572 0.67325-2.1018 1.4961-2.9247 0.82286-0.82287 1.9275-2.6308 2.4548-4.0176 0.68085-1.7908 1.9661-2.7105 4.4348-3.1736 5.5972-1.05 3.5592-3.4555-2.9276-3.4555-2.9304 0-6.5086-0.44891-7.9518-0.99759-1.4431-0.54867-5.8599-1.2056-9.8151-1.4599-6.9788-0.4487-19.082-2.6334-25.191-4.5473-15.719-4.9242-14.417-5.1548-19.979 3.5394-6.89 10.78-15.52 7.41-15.52-6.06 0-1.9788-0.52706-4.5808-1.1712-5.7821-1.5076-2.8114-1.938-13.436-2.2359-55.184-0.28143-39.438 1.2775-55.899 7.4341-78.5 1.1237-4.125 2.8928-11.55 3.9313-16.5 1.0386-4.95 2.4626-11.573 3.1646-14.717 0.70195-3.1444 1.034-5.9594 0.73799-6.2554-0.82259-0.82259-15.057 6.7654-15.894 8.4725-3.3892 6.9145-3.4146 7.1809-1.4391 15.103 0.49003 1.9652 0.0406 3.2596-1.8342 5.2825-2.6683 2.8792-4.1902 8.4747-3.175 11.673 0.37153 1.1706-0.17345 3.2856-1.3415 5.2063-4.0644 6.6832-7.3573 16.53-6.2315 18.633 1.6298 3.0452 1.2954 4.5231-1.9457 8.6015-1.65 2.0763-2.9986 4.7256-2.9968 5.8875 0.002 1.1619-0.85663 5.2625-1.9075 9.1125-4.374 16.025-7.3493 34.454-11.126 68.912-0.56882 5.1902-0.51155 8.5762 0.16647 9.8431 0.56846 1.0622 0.75924 3.0242 0.42397 4.36-0.4165 1.6595-0.13445 2.6112 0.89039 3.0044 1.5141 0.581 4.5434 5.7569 4.5559 7.7841 0.004 0.603 2.0287 4.2328 4.5 8.0661 2.4713 3.8334 4.4933 7.4348 4.4933 8.0032 0 0.56839 1.6068 3.282 3.5706 6.0302s4.6577 7.3593 5.9864 10.247c1.3287 2.8875 2.7886 5.25 3.2442 5.25 0.45559 0 1.5794 1.575 2.4974 3.5 0.91797 1.925 2.0762 3.5 2.5739 3.5 0.49769 0 1.1919 1.5298 1.5426 3.3995 0.35077 1.8697 1.3305 3.9745 2.1772 4.6772 0.84671 0.70271 2.1636 2.4845 2.9264 3.9596s2.7638 3.2523 4.4468 3.9494c1.8702 0.77467 3.3055 2.2462 3.6918 3.785 2.2262 8.87 9.2228 13.777 12.374 8.6789zm-381.01-3.93c-0.7-0.83-1.87-1.52-2.61-1.52-0.73852 0-2.8803-1.35-4.7596-3-5.2407-4.6014-7.6256-4.0403-3.1844 0.74931 3.789 4.0863 13.775 7.6588 10.552 3.7749zm53.98-28.02c0.52277-1.375 1.4308-2.5 2.018-2.5 1.3957 0 10.803-7.0198 13.906-10.377 1.3334-1.4425 2.9084-2.6525 3.5-2.689 0.59163-0.0365 3.1007-1.5954 5.5757-3.4642 8.4634-6.3904 17.498-12.221 23.272-15.019 3.1748-1.5383 7.4498-4.2236 9.5-5.9674 4.4212-3.7603 11.637-7.8796 15.478-8.8363 1.5125-0.37671 2.75-1.1264 2.75-1.6659 0-0.53952 0.4539-0.98095 1.0087-0.98095 0.55476 0 2.8723-1.35 5.15-3 2.2778-1.65 4.7966-3 5.5974-3 0.80084 0 3.1686-1.3564 5.2618-3.0142 2.0931-1.6578 5.3079-3.6956 7.1439-4.5284s6.9382-3.7314 11.338-6.4414c4.4-2.71 8.5074-4.9472 9.1276-4.9716 0.62015-0.0244 1.6878-0.71941 2.3724-1.5444 0.68469-0.825 2.0553-1.5 3.0458-1.5 0.99053 0 3.8643-1.575 6.3862-3.5s4.9188-3.51 5.3266-3.5222c0.40774-0.0122 1.8664-0.90222 3.2414-1.9778 1.375-1.0755 3.406-1.9655 4.5134-1.9778 1.1073-0.0122 4.3521-1.5972 7.2106-3.5222s5.708-3.5 6.3323-3.5c0.62429 0 2.4221-0.91647 3.9952-2.0366s4.3426-2.5338 6.1544-3.1416c1.8118-0.60775 3.9692-1.6812 4.7942-2.3855 0.825-0.70427 2.85-1.6162 4.5-2.0264 1.65-0.41025 7.05-2.981 12-5.7128 12.61-6.95 16.18-8.69 17.88-8.69 0.81228 0 2.0857-0.6088 2.8298-1.3529 0.74409-0.74409 2.4437-1.3066 3.7768-1.25 1.6677 0.0708 3.0619-0.8616 4.4686-2.9883 2.0874-3.156 5.6568-5.4088 8.5696-5.4088 0.89448 0 2.6832-1.125 3.975-2.5s3.2827-2.5143 4.4243-2.5318 2.9302-0.67857 3.9745-1.4691c1.0444-0.79049 4.1944-2.1895 7-3.1089 2.8056-0.91941 6.284-2.5001 7.7298-3.5126 2.62-1.84 16.89-7.88 18.61-7.88 2.1797 0 5.3865-5.1105 6.4809-10.328 1.7192-8.1964 0.74969-8.6498-8.8548-4.1417-4.3276 2.0313-9.4434 4.4164-11.368 5.3002-4.5349 2.082-9.1554 5.8435-10.487 8.5371-1.1933 2.414-22.742 13.632-26.186 13.632-1.1953 0.00019-3.4453 1.0592-5 2.3535-1.5547 1.2942-5.3017 3.1634-8.3267 4.1537s-6.85 2.8042-8.5 4.0308-4.125 2.5571-5.5 2.9566c-1.375 0.39951-3.85 1.9682-5.5 3.486s-4.503 3.04-6.3399 3.3827c-4.4141 0.82337-13.627 5.2899-17.442 8.4561-0.82241 0.68254-5.9329 3.5286-11.357 6.3245-5.4238 2.796-10.536 5.6416-11.361 6.3236-2.0667 1.7085-8.0338 4.5328-9.5769 4.5328-0.6983 0-2.6066 1.125-4.2407 2.5s-3.2475 2.5-3.5854 2.5c-0.33787 0-2.4779 1.35-4.7557 3s-4.5098 3-4.9602 3c-0.45032 0-3.8703 1.9678-7.6 4.3729-3.7296 2.4051-8.8062 5.2915-11.281 6.4143-2.475 1.1228-5.85 3.2044-7.5 4.6259s-3.528 2.5851-4.1733 2.5857c-0.64531 0.00067-2.4453 1.0647-4 2.3646-1.5547 1.2998-4.6267 3.3468-6.8267 4.5488-8.0193 4.3815-10.007 5.6027-10.338 6.3531-0.18614 0.42091-2.3021 1.6598-4.7021 2.7532-2.4 1.0933-4.7227 2.549-5.1616 3.2347-0.43886 0.68576-2.8229 2.3247-5.2979 3.6421s-5.4 3.1615-6.5 4.098c-1.1 0.93652-4.5048 3.1069-7.5663 4.823-3.0615 1.7162-6.4365 4.0838-7.5 5.2615s-4.4087 3.7728-7.4337 5.7669-6.85 5.0066-8.5 6.6945c-6.7232 6.8776-13.741 9.6015-15.167 5.8866-0.66428-1.7311 6.7689-10.006 9.8732-10.991 1-0.31 1.81-1.17 1.81-1.92 0-1.9 4.89-7.51 6.55-7.51 0.755 0 3.4563-2.025 6.0029-4.5s5.296-4.5 6.1098-4.5c0.81381 0 2.091-0.5625 2.8383-1.25 0.74726-0.6875 3.6686-2.825 6.4919-4.75s7.6922-5.4468 10.82-7.8262c3.1277-2.3794 8.4952-5.9034 11.928-7.8311 3.4326-1.9277 6.5009-3.9252 6.8184-4.4389 0.3175-0.51373 2.2279-1.6237 4.2452-2.4666 2.0174-0.84292 4.5803-2.3896 5.6953-3.4371s3.8212-2.65 6.0136-3.5612c2.1925-0.91117 5.9214-2.9576 8.2865-4.5477 2.37-1.59 4.67-2.89 5.13-2.89 0.45508 0 1.4386-0.73648 2.1857-1.6366 0.74706-0.90014 3.3288-2.4813 5.7373-3.5137s5.6404-2.7752 7.182-3.873c1.5416-1.0977 6.0984-3.3982 10.126-5.1122 4.0278-1.714 8.8923-4.4096 10.81-5.9904s4.2291-2.8741 5.1365-2.8741c0.90734 0 2.2099-0.675 2.8946-1.5 0.68469-0.825 2.027-1.5 2.9829-1.5s3.38-1.1143 5.387-2.4762c2.0069-1.3619 6.0072-3.4693 8.8895-4.6831s7.0406-3.4094 9.2406-4.8792 5.6162-3.1988 7.5917-3.8422c1.9754-0.64341 4.5599-2.2835 5.7434-3.6446s2.9422-2.477 3.9084-2.4798c0.96613-0.003 3.5566-1.1138 5.7566-2.4688s5.0222-2.4777 6.2714-2.4949c1.2493-0.0172 3.9861-1.1659 6.0818-2.5528s5.1235-2.9319 6.7286-3.4334c7.7536-2.4227 21.953-9.0701 22.229-10.406 1.0163-4.9244-6.5326-3.8368-19.604 2.8245-3.817 1.9452-7.2272 3.5368-7.5782 3.5368-0.35109 0-2.9704 1.125-5.8206 2.5s-5.7055 2.5-6.345 2.5c-0.63955 0-2.937 1.2852-5.1054 2.856-5.8555 4.2417-19.353 10.378-21.559 9.8015-1.2562-0.32852-3.0729 0.59589-5.2472 2.67-2.9805 2.8432-8.7096 6.2704-19.738 11.807-2.0275 1.0179-3.9666 2.3041-4.309 2.8582-0.34243 0.55406-1.5795 1.0074-2.7491 1.0074s-3.0555 0.82577-4.191 1.835c-1.1354 1.0093-4.5394 2.8608-7.5644 4.1146s-8.4855 4.253-12.134 6.665c-3.649 2.412-7.3756 4.3854-8.2814 4.3854-0.90579 0-1.9059 0.675-2.2225 1.5-0.31659 0.825-1.5974 1.5-2.8462 1.5s-2.8034 0.64204-3.4547 1.4268c-0.65125 0.78471-4.7415 3.2449-9.0895 5.467-4.348 2.2222-8.812 4.9469-9.9201 6.055s-4.9443 3.3431-8.5248 4.9666-8.6512 4.7319-11.268 6.9077c-2.617 2.1757-5.7291 4.2478-6.9158 4.6045-1.1867 0.35673-2.4101 1.3065-2.7186 2.1105-0.30855 0.80406-1.4934 1.4619-2.6329 1.4619s-3.5162 0.98317-5.2814 2.1848c-7.51 5.11-8.69 5.82-9.68 5.82-0.57 0-1.04 0.39-1.04 0.87 0 0.95892-13.387 12.385-15.28 13.041-0.65152 0.2259-1.8117 1.0378-2.5782 1.8043-0.76647 0.76646-2.5745 1.2566-4.0179 1.0893-3.1225-0.36206-4.1906-4.6745-1.6748-6.7623 0.85-0.71 1.55-1.9 1.55-2.66s0.72-1.38 1.59-1.38c0.87649 0 1.829-0.9 2.1166-2 0.28766-1.1 0.98451-2 1.5486-2 0.56405 0 3.3241-1.937 6.1334-4.3045s7.1687-5.4915 9.6875-6.9424c2.5188-1.4508 5.1614-3.3388 5.8724-4.1955 0.71-0.86 2.08-1.56 3.05-1.56 0.96531 0 2.3532-0.72066 3.0842-1.6015 1.6067-1.9359 9.0974-6.77 17.916-11.562 7.1184-3.8681 9.375-5.1807 20.214-11.758 4.0073-2.4316 12.461-7.1051 18.786-10.385 6.325-3.2803 14.875-7.8783 19-10.218 4.125-2.3395 9.219-4.7989 11.32-5.4653 2.101-0.66641 4.0616-1.8414 4.357-2.611 0.29534-0.76964 1.1192-1.3993 1.8307-1.3993 1.79 0 10.362-4.0549 13.992-6.6188 1.65-1.1654 4.125-2.4626 5.5-2.8828 2.5692-0.78519 10.731-4.7038 24.124-11.583 4.1932-2.1536 8.3006-3.9157 9.1276-3.9157 0.82698 0 2.0638-0.675 2.7485-1.5 0.68469-0.825 1.9773-1.5041 2.8724-1.5091 0.89516-0.005 3.8776-1.116 6.6276-2.4687 2.75-1.3528 5.9225-2.4737 7.05-2.4909s2.4775-0.45625 3-0.97568c0.5225-0.51942 6.3458-3.6939 12.941-7.0544 6.5949-3.3605 12.36-6.77 12.811-7.5766 0.45143-0.80667 1.2373-1.2092 1.7464-0.89463 0.50908 0.31463 1.9163-0.35091 3.1271-1.479s3.0432-2.051 4.072-2.051 1.6295-0.38986 1.335-0.86635c-1.0851-1.7557 12.473-10.088 16.467-10.121 0.8525-0.007 1.9775-0.4071 2.5-0.88918 0.5225-0.48207 3.5519-1.8312 6.7321-2.998s6.7802-2.7712 8-3.5654c1.2199-0.79414 3.4262-1.66 4.9029-1.924 6.7423-1.2057 11.447-6.984 11.955-14.683l0.36-5.45-5 0.34698c-2.75 0.19084-5.675 0.89391-6.5 1.5624-0.825 0.66847-3.4347 2.0532-5.7993 3.0771s-5.6952 3.4516-7.4014 5.3948c-3.4705 3.9527-7.4237 6.3267-13.633 8.1871-2.3045 0.69043-4.6897 1.8575-5.3005 2.5935-0.61081 0.73598-1.7171 1.3382-2.4585 1.3382-0.74136 0-3.8074 1.125-6.8135 2.5-3.006 1.375-5.9677 2.5-6.5815 2.5-0.61377 0-2.7801 0.85124-4.8141 1.8916-9.6403 4.9312-16.852 8.1091-18.401 8.1088-2.1241-0.00049-6.797 2.078-6.797 3.0232 0 0.38643-2.4626 1.4772-5.4724 2.4239-3.0098 0.94672-6.5329 2.5554-7.8289 3.5749-1.2961 1.0195-3.671 2.1645-5.2776 2.5444-1.6066 0.37995-4.0461 1.6666-5.4211 2.8593s-4.3 2.7708-6.5 3.5069c-2.2 0.73614-5.1945 2.1774-6.6544 3.2027s-3.6904 1.8642-4.9566 1.8642-4.8683 1.8-8.0046 4-6.1088 4-6.6056 4c-1.2509 0-9.4502 3.9619-11.279 5.45-0.825 0.67134-3.075 1.8166-5 2.5451-1.925 0.72848-4.85 2.3093-6.5 3.513-1.65 1.2036-4.8 2.7654-7 3.4705-2.2 0.70511-4.5419 1.7114-5.2042 2.2362-1.324 1.049-5.4394 3.3389-15.235 8.477-3.5416 1.8577-6.9378 3.7913-7.547 4.2968-0.60917 0.50556-4.9523 2.9138-9.6515 5.3516-4.6991 2.4378-9.7018 5.5902-11.117 7.0054s-3.8493 2.8785-5.4092 3.2519c-3.1826 0.76179-10.703 4.5873-17.066 8.681-2.3266 1.4968-4.8016 2.7297-5.5 2.7397-1.3378 0.0192-9.0737 4.7815-11.978 7.3739-0.93968 0.83869-3.6397 2.5034-6 3.6994s-5.9312 3.4647-7.9354 5.0415-4.3508 2.8669-5.2148 2.8669-2.0092 0.81887-2.5448 1.8197c-0.53563 1.0008-2.7793 2.4155-4.9858 3.1438-2.2066 0.72824-5.2434 2.6094-6.7484 4.1803-2.0562 2.1462-3.6675 2.8562-6.482 2.8562-4.2401 0-4.1993-0.0714-5.9997 10.5-1.3443 7.8936-1.344 7.8575-0.20049 19.505 0.61457 6.2601 1.4269 9.3364 3.0774 11.654 1.2334 1.7321 2.2425 3.5544 2.2425 4.0495 0 0.49512 1.6097 2.6576 3.5772 4.8056 1.9674 2.148 4.0083 4.7109 4.5352 5.6954 1.42 2.63 4.77 2.23 5.89-0.72zm266.06-38.39c-0.89-1.66-2.08-2.11-5.6-2.11-6.5912 0-5.8229 2.2975 1.5352 4.5909 4.1602 1.2967 5.6067 0.41128 4.0575-2.4835zm172.15-2.7591c0.70919-0.90845 2.9769-3.3654 5.0394-5.4599 4.5903-4.6615 4.6695-5.6584 0.5-6.2899-3.8459-0.58241-31.145-1.9089-34.75-1.6886-2.3218 0.14193-6.0039 0.10555-23-0.22725-23.139-0.45308-28.828 0.6681-21.426 4.2226 1.6094 0.77291 3.0858 1.8145 3.281 2.3146 0.61737 1.5819 5.4253 3.0972 12.145 3.8276 3.575 0.38859 9.3778 1.2322 12.895 1.8747s13.739 1.2818 22.714 1.4206c8.9756 0.13883 16.635 0.5685 17.022 0.95481 1.2543 1.2543 4.2584 0.74313 5.5796-0.94935zm-124.14-7.47c0.93465-1.7464 0.78178-2.4756-0.86395-4.1214-2.33-2.33-4.21-1.61-4.21 1.6 0 4.3082 3.2442 5.9217 5.0652 2.5192zm-321.83-17.96c3.4448-3.342 8.9633-7.6838 12.263-9.6485 3.3-1.9647 8.25-5.023 11-6.7964s7.475-4.4961 10.5-6.0506c5.628-2.8922 6.9768-3.7081 15.279-9.2424 2.63-1.75 5.59-3.18 6.57-3.18 0.98594 0 3.5603-1.3375 5.7208-2.9722s4.3134-2.9847 4.7842-3c0.47085-0.0153 2.4958-1.2794 4.5-2.8092 2.0041-1.5298 5.4326-3.3955 7.6188-4.146 3.9912-1.3702 9.8857-4.8921 17.888-10.688 2.3659-1.7135 6.7395-4.0341 9.7192-5.1569s9.0052-3.8834 13.39-6.1346 8.4689-4.0931 9.0757-4.0931c0.60683 0 2.1602-1.125 3.452-2.5s2.8607-2.5 3.4865-2.5c0.62583 0 2.9099-0.84261 5.0757-1.8725 2.1658-1.0298 5.7378-2.4714 7.9378-3.2035 2.2-0.73208 6.1543-2.8258 8.7874-4.6527s8.0331-4.6284 12-6.2254c3.967-1.597 9.2376-3.9183 11.713-5.1584 2.475-1.2401 7.2886-3.2453 10.697-4.456 3.4083-1.2107 8.3025-3.3781 10.876-4.8164 2.5734-1.4383 5.3206-2.6151 6.1049-2.6151 0.78426 0 3.0901-0.8787 5.124-1.9527 3.5814-1.8911 6.6001-3.2163 18.198-7.9894 3.025-1.2449 7.8725-3.3422 10.772-4.6607 2.8997-1.3185 5.9433-2.3972 6.7636-2.3972 0.82028 0 2.2728-0.43966 3.2278-0.97701 0.95504-0.53736 3.6503-1.4551 5.9895-2.0394 3.5337-0.88266 4.5115-1.681 5.7813-4.7201 3.5415-8.476 1.5171-8.3436-21.186 1.386-1.7331 0.74276-4.2655 1.3505-5.6276 1.3505-1.362 0-3.0366 0.675-3.7213 1.5-0.68469 0.825-2.2023 1.51-3.3724 1.5222-1.16 0.01-3.24 0.9-4.62 1.98-1.375 1.0755-3.0111 1.9655-3.6357 1.9778-0.62463 0.0122-2.4246 0.69447-4 1.5161-1.5754 0.82161-4.0348 1.4966-5.4654 1.5-1.4306 0.003-4.7169 1.1312-7.3029 2.5062s-5.6046 2.5-6.708 2.5-1.7765 0.37145-1.496 0.82545c0.28058 0.45399-4.9804 3.235-11.691 6.18s-16.405 7.2985-21.544 9.6746c-5.14 2.38-9.98 4.32-10.77 4.32-0.78118 0-5.5771 2.0581-10.658 4.5736-5.0805 2.5155-10.269 4.7057-11.53 4.8672-1.2609 0.16147-2.8359 0.97438-3.5 1.8065-0.66405 0.83209-2.3653 1.7805-3.7805 2.1075-1.4152 0.32703-4.2477 1.731-6.2944 3.1199s-4.1574 2.5254-4.6905 2.5254c-0.53304 0-1.7506 0.40181-2.7056 0.89291-0.95504 0.49109-6.6864 3.352-12.736 6.3576-6.05 3.0056-14.15 7.1734-18 9.2618s-13.075 6.9306-20.5 10.76c-7.425 3.8297-14.625 7.5436-16 8.253-16.539 8.5336-22.017 9.8186-21.985 5.1569 0.0214-3.0537 0.79988-3.8486 6.4847-6.6214 2.75-1.3413 5.675-2.9872 6.5-3.6576 2.821-2.2921 39.079-21.677 58-31.009 14.895-7.3466 33.384-16.063 37-17.444 1.925-0.73506 4.9762-2.1496 6.7804-3.1433 1.8042-0.99377 3.7736-1.8069 4.3763-1.8069 0.60273 0 3.7525-1.35 6.9995-3s6.69-3 7.6512-3c0.96117 0 2.7938-0.73278 4.0724-1.6284 1.2787-0.89561 3.7413-1.9952 5.4725-2.4436 1.7312-0.44837 4.7973-1.2347 6.8135-1.7473 2.0162-0.51266 6.5162-2.2691 10-3.9033 8.5971-4.0326 20.451-8.4269 27.681-10.261 1.8407-0.46703 4.3157-1.7381 5.5-2.8247s3.5848-2.2781 5.3342-2.6478c1.7495-0.36973 3.678-1.2712 4.2856-2.0034 0.6076-0.73211 2.7762-1.6435 4.8191-2.0252 2.0429-0.38175 4.1644-1.0449 4.7144-1.4736 0.55-0.42875 3.475-1.3537 6.5-2.0554 3.025-0.70171 7.75-2.2956 10.5-3.542s6.6925-2.5822 8.761-2.9685c2.0686-0.38624 4.0076-1.1012 4.309-1.5889 0.31-0.49 1.63-0.89 2.94-0.89 1.3101 0 2.6601-0.45 3-1 0.7315-1.1836 6.5-1.3611 6.5-0.2 0 0.44-0.50079 1.3008-1.1129 1.9129-4.5647 4.5647 5.3132 4.1625 15.383-0.62638 4.5262-2.1524 8.8873-4.0967 9.6914-4.3206 1.4988-0.41739 3.8359-9.5221 4.4731-17.426 0.18444-2.2878 0.70782-4.7624 1.1631-5.499 0.45524-0.73659 1.1279-3.885 1.4947-6.9964 0.36687-3.1114 1.3961-7.1185 2.2871-8.9047 3.1382-6.2907-0.82789-12.864-8.647-14.331-2.0207-0.37909-4.9897-1.7964-6.5978-3.1495-2.9657-2.4955-9.4164-3.432-10.588-1.5372-0.31377 0.50769-2.0278 1.2398-3.809 1.627-1.7812 0.38714-5.4602 1.7718-8.1757 3.0769-2.7154 1.3052-5.7264 2.373-6.691 2.373s-2.0004 0.39899-2.3018 0.88664c-0.30138 0.48765-2.0823 1.1745-3.9576 1.5263s-4.6037 1.5789-6.0631 2.7269-4.5426 2.6851-6.8514 3.4159c-2.3089 0.73073-7.1229 2.4195-10.698 3.7527-3.575 1.3333-11 4.0631-16.5 6.0663s-11.125 4.256-12.5 5.0061c-1.375 0.75013-4.975 1.919-8 2.5974-3.025 0.67845-6.175 1.6387-7 2.1338-0.825 0.49514-3.075 1.6296-5 2.5211-1.925 0.89148-4.625 2.1824-6 2.8686-1.375 0.68627-4.75 1.5721-7.5 1.9684-2.75 0.39637-6.125 1.3466-7.5 2.1116-3.3669 1.8732-10.047 4.2381-18.457 6.5338-3.8263 1.0445-8.5755 3.0208-10.554 4.3917-1.9783 1.371-4.2995 2.4926-5.1582 2.4926-0.85877 0-2.6366 0.84572-3.9506 1.8794-1.3141 1.0337-3.2873 2.0523-4.3849 2.2637-1.1954 0.23021-1.9956 1.1808-1.9956 2.3706 0 2.6002 3.4366 3.0876 7.3827 1.047 1.6599-0.85837 4.08-1.5607 5.3781-1.5607 1.298 0 5.2579-1.1632 8.7997-2.5849s10.811-3.8602 16.154-5.419c5.3429-1.5587 10.262-3.1726 10.932-3.5864 1.0522-0.65026 22.366-6.5346 34.354-9.4846 2.2-0.54136 7.825-1.4766 12.5-2.0782 5.1722-0.66565 8.8131-1.6328 9.2997-2.4704 0.43983-0.75708 2.1008-1.3765 3.691-1.3765s3.1224-0.37396 3.4049-0.83103c0.75659-1.2242 14.139-3.5617 16.094-2.8112 2.6751 1.0265 1.2504 2.8506-3.2687 4.1849-2.2966 0.67809-5.7866 2.1834-7.7555 3.3451-2.0808 1.2277-5.3358 2.1211-7.7728 2.1333-2.3061 0.0116-7.3428 1.1809-11.193 2.5984-3.85 1.4175-8.8 2.9195-11 3.3378-2.2 0.41827-6.475 1.6799-9.5 2.8036s-8.2 2.803-11.5 3.7318c-3.3 0.92879-7.0337 2.0979-8.297 2.5981-1.2634 0.50016-3.0141 0.90937-3.8905 0.90937-0.87638 0-3.4427 0.84846-5.703 1.8855-5.16 2.37-14.57 5.11-17.53 5.11-1.2418 0-3.5095 0.89134-5.0395 1.9808-1.53 1.0894-5.1994 2.6109-8.1544 3.3811-2.955 0.77018-8.1716 2.5788-11.593 4.0192-3.4209 1.4404-7.3033 2.6189-8.6276 2.6189-1.3242 0-2.9679 0.675-3.6526 1.5-0.68469 0.825-2.2023 1.5066-3.3724 1.5146-2.193 0.015-8.8527 2.1249-14.128 4.4759-1.65 0.7354-4.8 1.8658-7 2.5119-2.2 0.64615-6.7 2.4619-10 4.0349-5.5302 2.6361-11.596 5.1444-20.5 8.4771-1.925 0.7205-5.525 2.4691-8 3.8858s-5.0425 2.5812-5.7056 2.5878c-0.66308 0.007-2.8634 1.137-4.8896 2.512s-4.9935 2.5-6.5941 2.5c-6.962 0-11.668 4.9444-13.801 14.5-0.73671 3.3-1.8143 6.9-2.3947 8-4.789 9.0768-3.797 21.138 1.0856 13.2 1.2654-2.0574 6.5196-5.3412 9.7997-6.1248 1.65-0.39414 5.025-1.9792 7.5-3.5223s6.6155-3.589 9.201-4.5464c2.5856-0.95737 5.451-2.5694 6.3676-3.5822 0.91661-1.0128 3.9761-2.5915 6.799-3.5081 2.8228-0.9166 6.0324-2.4548 7.1324-3.4181 1.1-0.96337 3.6515-2.28 5.67-2.9259 2.0185-0.64588 4.2111-1.8263 4.8724-2.6232 0.66134-0.79687 1.7098-1.4516 2.33-1.455 0.62016-0.003 2.3222-0.62948 3.7824-1.3913 3.7595-1.9615 26.373-12.016 32.345-14.381 2.75-1.0891 7.925-3.1561 11.5-4.5933s8.975-3.3363 12-4.2203c3.025-0.88403 7.9338-2.7139 10.908-4.0665 2.9746-1.3525 8.3746-3.4071 12-4.5657s7.3021-2.7071 8.1704-3.4411c0.86831-0.73402 2.0693-1.3346 2.669-1.3346 0.59962 0 2.3642-0.66076 3.9213-1.4684 1.5571-0.80759 6.206-2.4419 10.331-3.6318s7.95-2.4386 8.5-2.775c0.55-0.33634 2.8-1.1291 5-1.7616 4.2646-1.2262 15.851-5.8032 18.736-7.4014 0.95504-0.52901 2.3661-0.96184 3.1357-0.96184s2.6882-0.67223 4.2636-1.4938c1.5754-0.82161 3.9199-1.4966 5.21-1.5 1.2901-0.003 3.5401-0.65431 5-1.4465 1.4599-0.79218 5.8043-2.4023 9.6543-3.5779 6.702-2.0466 10.647-3.5944 16.831-6.604 1.5571-0.75775 4.2946-1.3777 6.0833-1.3777 1.7888 0 3.5419-0.28964 3.8959-0.64364 1.5985-1.5985 12.534-5.3507 15.69-5.3835 1.925-0.02 4.3735-0.69713 5.4411-1.5046 2.5766-1.9488 5.4705-1.8621 6.257 0.18756 0.75276 1.9616-2.9443 5.3442-5.841 5.3442-1.0567 0-3.5944 0.73818-5.6392 1.6404-6.5575 2.8933-16.594 6.4285-20.918 7.368-2.3102 0.50196-5.0102 1.3513-6 1.8874-0.98981 0.53614-3.1496 1.4213-4.7996 1.967-1.65 0.54568-5.4686 1.9248-8.4859 3.0647-3.0172 1.1399-6.491 2.0725-7.7196 2.0725-1.2285 0-3.8361 0.9-5.7945 2-1.9585 1.1-4.0806 2-4.716 2-0.63532 0-2.0841 0.84063-3.2196 1.8681-2 1.81-14.7 6.13-18.01 6.13-0.89647 0-2.6478 0.66691-3.8918 1.482-1.8674 1.2235-29.176 11.25-36.168 13.279-1.1 0.31924-3.125 1.3587-4.5 2.3099-1.375 0.95121-4.4972 2.0182-6.9382 2.371-2.441 0.35283-6.9999 2.1976-10.131 4.0996-3.131 1.902-6.1846 3.4581-6.7858 3.4581-1.6748 0-16.447 6.0042-18.145 7.3751-0.825 0.66603-3.3 1.7795-5.5 2.4744-2.2 0.69487-6.7 2.556-10 4.1358-13.273 6.3541-27.348 12.854-33.5 15.469-8.9583 3.8089-14.313 6.587-15.514 8.0485-0.55786 0.67888-2.5829 1.5738-4.5 1.9888-4.48 0.97-12.99 5.25-12.99 6.53 0 0.54073-0.7875 0.98483-1.75 0.98689-0.9625 0.002-3.2234 0.90205-5.0242 2-1.8 1.09-4.21 1.99-5.35 1.99-1.1393 0-3.2659 0.83891-4.7258 1.8642s-4.4544 2.4303-6.6544 3.122c-6.2365 1.9611-6.7523 2.3754-8.1814 6.5719-0.73827 2.168-1.6334 4.6168-1.9892 5.4418s-0.57703 1.8328-0.49162 2.2396c0.16103 0.76697-3.3415 12.526-4.9316 16.557-0.49837 1.2634-0.90612 3.3109-0.90612 4.55s-0.37175 2.6804-0.82612 3.203c-0.45437 0.5225-1.3849 2.975-2.0678 5.45s-1.625 5.85-2.0935 7.5c-3.5091 12.358-2.7432 13.153 5.2241 5.4237zm188.3-14.42c6.4379-3.025 12.479-5.5 13.425-5.5 0.94601 0 2.5265-0.8912 3.5123-1.9804 0.98575-1.0892 3.418-2.2425 5.405-2.5628 1.987-0.32028 5.462-1.4541 7.7222-2.5196s4.6142-1.9372 5.231-1.9372c0.61678 0 1.4066-1.1362 1.7551-2.525 0.62891-2.5058 9.024-7.475 12.628-7.475 0.84208 0 2.1204-0.7101 2.8407-1.578 1.74-2.08 10.36-6.42 12.78-6.42 1.0509 0 2.4926-0.701 3.2036-1.5578 0.71106-0.85677 2.6787-2.21 4.3724-3.0072 1.6938-0.79717 4.8796-2.548 7.0796-3.8908s4.9851-2.893 6.1892-3.445c2.6745-1.226 4.3032-4.103 4.7429-8.3776 0.18224-1.7719 0.85295-4.5368 1.4905-6.1441 0.63751-1.6074 0.92986-3.5198 0.64968-4.25-0.56714-1.4779-4.2172-1.8239-4.7389-0.44912-0.35 0.94-13.11 7.12-14.69 7.12-0.51843 0-3.6365 2.025-6.9289 4.5-3.2925 2.475-6.2249 4.5-6.5164 4.5-0.29157 0-3.9553 2.025-8.1416 4.5s-8.0915 4.5-8.6783 4.5c-0.58676 0-2.2613 0.84405-3.7212 1.8757s-4.2294 2.2046-6.1544 2.6067c-1.925 0.40208-5.75 2.2028-8.5 4.0016s-6.8937 3.5871-9.2083 3.9741c-2.5926 0.43348-4.4216 1.3445-4.764 2.3728-0.30564 0.91803-9.4212 6.2344-20.257 11.814-18.37 9.45-22.78 12.35-18.83 12.35 0.88187 0 9.5819-4.1716 19.333-9.2702 29.866-15.616 50.878-25.235 59.73-27.344 1.65-0.39316 4.1907-1.5908 5.6459-2.6614 3.313-2.4374 12.164-3.6894 11.358-1.6066-0.5863 1.5147-4.3012 4.0668-11.504 7.9029-8.4226 4.4858-15.656 7.9445-16.65 7.9606-0.63227 0.0103-3.5452 1.8187-6.4731 4.0187s-6.1531 4-7.1671 4-3.2761 1.0616-5.0269 2.3591-6.5583 3.8094-10.683 5.5819c-4.125 1.7725-8.625 3.8481-10 4.6124-1.375 0.76431-5.0568 2.573-8.1818 4.0193-5.4356 2.5156-8.3149 5.4273-5.3671 5.4273 0.76357 0 6.6557-2.475 13.094-5.5zm453.83-11.904c3.0921-3.522 5.6221-6.8649 5.6221-7.4286 0-0.56369 0.5625-1.6385 1.25-2.3886 0.6875-0.75002 1.7-2.0631 2.25-2.9181 0.55-0.85492 3.5875-5.3856 6.75-10.068 8.6624-12.826 8.1048-14.898-4.1504-15.421-6.987-0.29839-12.972-1.1649-20.527-2.9723-5-1.2-18.6-11.87-18.6-14.61 0-0.64073-0.9136-2.1374-2.0301-3.3259-3.9917-4.2489-9.8746-24.685-12.072-41.936-0.5582-4.3824-1.4127-8.4473-1.8988-9.0331-0.515-0.62049-0.4619-2.9296 0.1272-5.532 0.5561-2.4568 0.7644-6.2669 0.4629-8.4669-1.2889-9.4032-1.7687-25.298-0.818-27.101 0.5506-1.0445 1.2868-10.899 1.6359-21.899s0.9024-22.714 1.2295-26.032c0.759-7.6962-0.5643-9.2323-5.9976-6.9621-2.0014 0.83626-3.639 1.912-3.639 2.3904 0 0.47847-0.8342 1.0881-1.8537 1.3547-1.9471 0.50919-3.3063 6.3806-3.6455 15.749-0.3376 9.3204-1.5119 27.668-2.0482 32-0.8339 6.7359-0.8689 30.045-0.051 33.655 0.4336 1.9126 0.2984 3.4124-0.3434 3.809-1.875 1.1588-1.1311 3.9032 1.6615 6.1299l2.7201 2.1689-1.7232 5.4665c-0.9478 3.0066-2.6218 6.2798-3.72 7.2737-1.0983 0.99393-1.9969 2.4303-1.9969 3.192 0 0.76166-0.9 3.149-2 5.3052-3.2541 6.3786-2.809 10.798 3.2737 32.5 0.6167 2.2 2.3823 6.7728 3.9237 10.162 1.5414 3.389 2.8026 6.4481 2.8026 6.798 0 1.7395 7.3584 11.734 12.591 17.102 3.25 3.3338 7.484 8.3768 9.409 11.207 3.5347 5.196 12.975 12.78 18.5 14.863 5.7431 2.1646 6.9832 1.6798 12.878-5.0344zm-320.4-2.28c1.375-0.71822 3.0925-1.3086 3.8167-1.312 0.7242-0.003 2.7917-1.1312 4.5944-2.5062s3.9599-2.5 4.7937-2.5c0.83384 0 3.2659-1.1875 5.4046-2.6388s5.239-3.0966 6.8896-3.656c2.5361-0.85961 9.8384-5.7773 11.501-7.7454 1.1488-1.3598 10.042-6.9435 17.489-10.981 4.394-2.3822 10.638-6.0431 13.875-8.1353s7.4044-4.3532 9.2608-5.0245c1.8565-0.6713 3.3754-1.5644 3.3754-1.9847 0-0.42026 4.3074-3.0861 9.5719-5.9242 5.2646-2.838 10.842-6.2288 12.394-7.535 1.55-1.31 3.14-2.38 3.53-2.38 1.44 0 10.5-4.51 10.5-5.23 0-0.4078 2.8125-2.1561 6.25-3.8852 3.4375-1.729 9.625-5.0564 13.75-7.394 4.125-2.3377 8.7292-4.536 10.232-4.8851 1.5024-0.34914 4.2024-1.8946 6-3.4344s5.5183-3.6297 8.2683-4.6442c2.75-1.0146 6.567-2.8983 8.4821-4.186 1.9152-1.2877 4.0307-2.3413 4.7011-2.3413 0.67042 0 4.2785-1.5659 8.0179-3.4798 10.943-5.6007 24.47-11.604 27.522-12.215 1.5959-0.31919 3.7883-1.923 5.0375-3.6853 3.0028-4.236 7.0096-7.5161 13.794-11.292 3.1344-1.7446 6.889-4.3622 8.3436-5.8168 4.5438-4.5438 8.0967-2.7585 6.2205 3.1258-0.5829 1.828-0.2071 2.2187 2.6001 2.7025 1.8048 0.3111 4.7148 0.85878 6.4667 1.2171 3.9861 0.81525 4.0055 0.71645 4.7539-24.252 0.5912-19.724 0.1604-21.509-4.0861-16.929-1.3387 1.4437-3.026 2.6249-3.7497 2.6249-0.7236 0-3.3784 1.575-5.8995 3.5s-4.9483 3.5022-5.3938 3.5049c-1.5211 0.009-14.805 7.1551-16.874 9.0775-1.1708 1.0876-3.4961 1.9176-5.3719 1.9176-4.1067 0-2.6407-3.1486 2.8328-6.0841 1.7944-0.9623 4.0142-2.3718 4.933-3.1322 0.9188-0.76042 5.7206-3.3522 10.671-5.7596 4.95-2.4073 10.194-5.1976 11.654-6.2005 1.4599-1.003 4.0144-1.8236 5.6767-1.8236 4.0941 0 5.9039-3.8328 7.1962-15.241 1.3524-11.938 0.5542-12.682-9.5414-8.8834-8.9232 3.3571-10.282 3.9855-10.948 5.0625-0.3609 0.58392-1.6421 1.076-2.8471 1.0935-1.2051 0.0175-3.0645 0.6925-4.1321 1.5-1.0677 0.80751-2.6962 1.4682-3.619 1.4682s-4.9993 1.7813-9.0589 3.9584c-4.0595 2.1772-8.6876 4.6522-10.285 5.5-1.597 0.84785-3.847 1.5432-5 1.5453-2.4021 0.004-8.1443 3.2804-10.5 5.9904-0.87819 1.0104-4.423 2.8404-7.8774 4.0667s-6.5184 2.6142-6.809 3.0844c-0.28 0.46-1.41 0.84-2.51 0.84-2.2949 0-10.023 3.9331-11.145 5.6718-0.41577 0.64452-2.2158 1.4748-4 1.8451s-4.8383 1.9268-6.7868 3.4588c-1.9486 1.532-5.7054 3.7707-8.3486 4.9748s-6.9545 3.5114-9.5806 5.1273c-2.6262 1.6159-6.2943 3.4564-8.1514 4.0899-2.9175 0.99531-4.7944 2.2019-10.436 6.7089-0.58279 0.46558-3.2828 2.0752-6 3.5771-2.7172 1.5018-5.3679 3.1391-5.8904 3.6384-0.5225 0.49933-1.8077 0.90787-2.8561 0.90787s-3.5458 1.2849-5.55 2.8553c-2.0041 1.5704-4.7596 3.4415-6.1233 4.1579-1.3636 0.71645-3.0833 1.9066-3.8214 2.6447-0.73814 0.73813-2.1834 1.3421-3.2116 1.3421-1.0283 0-2.1248 0.41298-2.4368 0.91774-0.65 1.05-12.23 9.08-13.11 9.08-0.31792 0-2.0105 1.0756-3.7613 2.3901-1.7508 1.3146-5.6016 3.6409-8.5573 5.1697-2.9557 1.5287-6.7807 4.0752-8.5 5.6588-5.12 4.72-18.62 11.41-18.62 9.23 0-1.6327 11.971-11.428 21.673-17.733 3.9449-2.564 7.4497-5.1102 7.7884-5.6582 0.3387-0.54802 2.9082-2.1478 5.7099-3.555s8.5351-5.1515 12.741-8.3205c4.2056-3.169 9.2085-6.3965 11.118-7.1721 1.909-0.77561 7.332-4.0214 12.051-7.2128 4.7192-3.1914 9.1661-5.8026 9.882-5.8026 1.5635 0 6.9493-3.2312 12.864-7.7181 2.3796-1.8051 4.898-3.2819 5.5964-3.2819 1.7511 0 7.4658-2.8862 11.077-5.5944 1.65-1.2374 4.219-2.554 5.709-2.9258 1.4899-0.37178 3.2325-1.3068 3.8724-2.0778 0.6399-0.77104 1.5884-1.4019 2.1077-1.4019 0.51935 0 2.4192-1.125 4.2219-2.5s3.7132-2.5 4.2454-2.5c0.53228 0 2.7398-0.85603 4.9056-1.9023s6.5635-3.0634 9.7727-4.4825 7.1812-3.7131 8.8267-5.0977c1.6729-1.4077 4.2546-2.5175 5.8562-2.5175 1.5753 0 3.1431-0.45118 3.4839-1.0026 0.34081-0.55145 2.7299-1.9521 5.309-3.1125 2.5792-1.1604 12.221-5.8472 21.427-10.415 9.2055-4.5679 18.206-8.6193 20-9.003 1.7945-0.38375 3.7127-1.0121 4.2627-1.3963 0.55-0.38422 4.2065-1.7395 8.1255-3.0118 9.0924-2.9518 10.205-4.9007 9.7397-17.059-0.1789-4.675 0.1422-11.875 0.7137-16s1.2235-18.736 1.4489-32.47c0.2254-13.733 0.6799-26.2 1.0101-27.703 0.3389-1.543-0.036-4.1694-0.8617-6.0304-0.8041-1.8133-1.7211-4.0844-2.0378-5.0469-0.9059-2.7539-12.092 0.30844-17.638 4.8288-0.825 0.67235-3.075 1.7028-5 2.2899-9.4812 2.8915-17.552 6.1644-20.373 8.2618-2.7498 2.0446-6.7596 4.1009-18.127 9.2962-1.65 0.75408-5.4815 2.5416-8.5144 3.9722s-6.0244 2.6012-6.6478 2.6012c-0.62339 0-4.0963 1.8-7.7176 4s-7.0058 4-7.5212 4c-0.51537 0-2.211 0.63521-3.7681 1.4116-5.9337 2.9586-18.014 8.4549-22.331 10.16-5.0992 2.0142-24.463 10.927-27.5 12.658-4.73 2.69-15.66 7.77-16.72 7.77-0.63681 0-2.9874 0.86376-5.2236 1.9195-2.2361 1.0557-6.3157 2.6633-9.0657 3.5723-2.75 0.90908-5.675 2.2383-6.5 2.9539-0.825 0.71555-3.1418 1.5948-5.1486 1.9539-2.0067 0.35912-4.9149 1.6491-6.4628 2.8666-1.5478 1.2175-3.623 2.0766-4.6116 1.9091-0.98859-0.16747-2.9785 0.62456-4.4221 1.7601s-3.1265 2.0786-3.7398 2.0958c-0.61333 0.0172-3.3651 1.1381-6.1151 2.4909s-5.7268 2.4637-6.6151 2.4687c-0.88833 0.005-2.7643 0.91309-4.1689 2.0179s-3.9496 2.288-5.6557 2.6292c-1.706 0.34121-3.3441 1.0123-3.6401 1.4912-0.29601 0.47896-2.0316 0.87084-3.8567 0.87084-6.6599 0-6.805 4.502-0.3 9.3118 5.115 3.7821 5.4096 3.8305 8.4019 1.3817 4.03-3.3 13.13-8.7 14.66-8.7 0.70906 0 3.4179-1.35 6.0197-3s5.3105-3 6.0193-3c0.70884 0 10.481-4.635 21.715-10.3 11.235-5.6649 22.451-11.169 24.926-12.231 2.475-1.0621 4.95-2.4284 5.5-3.0361 0.55-0.60778 3.025-1.6678 5.5-2.3556s6.3801-2.3366 8.6781-3.664c2.2979-1.3274 5.0342-2.4134 6.0805-2.4134 1.0464 0 4.1162-1.1422 6.8219-2.5382 8.0157-4.1357 18.35-8.4618 27.48-11.504 4.7081-1.5686 11.233-4.1819 14.5-5.8072 3.2669-1.6254 8.6398-3.7019 11.94-4.6145 3.3-0.91263 7.274-2.3066 8.831-3.0978 1.5571-0.79117 4.2946-1.4385 6.0834-1.4385 1.7887 0 3.5741-0.3218 3.9674-0.71512 0.8679-0.86796 9.3986-3.1794 11.96-3.2408 1.0132-0.0243 2.9864-0.94413 4.3848-2.0441 2.4787-1.9497 9.1685-2.7711 10.634-1.3056 0.9659 0.96585-3.7552 4.8425-7.6387 6.2724-1.7723 0.65256-5.4723 2.2312-8.2223 3.508s-6.125 2.6206-7.5 2.9862c-1.375 0.36558-3.625 1.1466-5 1.7356-5.0226 2.1516-6.7082 2.7415-18 6.2992-6.325 1.9929-12.719 4.4966-14.21 5.5638-1.4902 1.0672-3.9652 1.948-5.5 1.9574-1.5348 0.009-5.0405 1.3517-7.7905 2.983-2.75 1.6312-5.7775 2.9736-6.7278 2.983-0.95031 0.009-4.1003 1.1004-7 2.4244-2.8997 1.3241-8.6472 3.679-12.772 5.2331-4.125 1.5542-9.0253 3.8458-10.89 5.0926-1.85 1.25-4.02 2.27-4.81 2.27-0.78718 0-4.2119 1.4316-7.6105 3.1814-10.56 5.44-11.44 5.82-13.36 5.82-3.4008 0-18.756 7.0669-21.863 10.062-1.6762 1.6158-4.0476 2.9377-5.2699 2.9377-1.2222 0-3.9008 1.0401-5.9524 2.3114s-5.3051 2.9347-7.2301 3.6965c-1.925 0.76179-5.5748 2.6466-8.1106 4.1886-2.5358 1.5419-5.0233 2.8035-5.5278 2.8035-0.50444 0-1.6878 0.9-2.6296 2-0.94185 1.1-2.5658 2-3.6088 2-3.9094 0-12.761 6.9217-15.745 12.312-9.4648 17.098-6.1136 26.595 6.7696 19.184 2.3936-1.3768 5.9687-2.9501 7.9446-3.4962 1.9759-0.54603 4.6544-1.9137 5.9522-3.0393s4.1812-2.8627 6.4075-3.8604c2.2263-0.99765 7.1601-3.9137 10.964-6.48 3.8039-2.5664 8.0789-4.9466 9.5-5.2893 1.4211-0.34274 3.7782-1.4575 5.2382-2.4773 1.4599-1.0198 3.0923-1.8542 3.6276-1.8542 0.53525 0 1.5143-0.65198 2.1756-1.4488 0.66134-0.79686 2.8539-1.976 4.8724-2.6203 2.0185-0.64431 6.145-2.793 9.17-4.7749 5.3783-3.5237 9.1518-5.5757 32.197-17.509 6.2167-3.2192 13.238-7.1567 15.603-8.75 2.37-1.6 4.86-2.9 5.55-2.9 0.68975 0 3.4797-1.4318 6.1999-3.1817 5.8614-3.7708 16.238-9.4985 25.946-14.322 3.85-1.9129 11.5-5.9748 17-9.0264s12.475-6.6715 15.5-8.0443 9.55-4.4733 14.5-6.8901 11.475-5.5992 14.5-7.0721c3.025-1.4728 6.625-3.298 8-4.0558 2.8914-1.5936 7-1.8532 7-0.44221 0 2.1298-6.2862 8.0348-8.5535 8.0348-1.2904 0-4.2813 1.2838-6.6464 2.8529-2.365 1.5691-5.8428 3.3737-7.7283 4.0101-1.8855 0.63644-5.4855 2.4524-8 4.0356-2.5145 1.5831-10.854 6.0934-18.533 10.023-7.6788 3.9294-14.204 7.501-14.5 7.9368-0.5692 0.83727-4.2364 2.8839-10.039 5.6026-1.925 0.90195-5.525 2.9319-8 4.5109-2.475 1.5791-5.4312 2.9064-6.5694 2.9496s-4.5071 1.8974-7.4865 4.1203c-2.9794 2.223-9.5232 6.039-14.542 8.4801-5.0185 2.4411-9.6499 5.0714-10.292 5.8451-0.6421 0.77368-4.6421 3.0852-8.889 5.1368-4.2468 2.0515-9.154 4.8025-10.905 6.1132-1.7508 1.3107-3.8255 2.3831-4.6104 2.3831-0.78495 0-2.9852 1.0573-4.8896 2.3496-1.9043 1.2923-5.4957 3.1262-7.981 4.0753-2.4852 0.94912-5.6953 2.8168-7.1335 4.1504s-2.9459 2.4247-3.3504 2.4247c-0.40451 0-3.6866 1.7407-7.2936 3.8682s-8.3582 4.468-10.558 5.201c-2.2 0.73304-5.4236 2.6429-7.1636 4.2442s-3.6617 2.6036-4.2705 2.2273c-0.60879-0.37625-2.4824 0.47329-4.1635 1.8879s-4.2594 2.8683-5.7295 3.2304c-1.4701 0.36215-5.3729 2.3527-8.6729 4.4235-7.359 4.6178-15.018 8.8629-23.226 12.874-7.6659 3.7456-9.0866 5.8413-11.299 16.666-0.96082 4.7021-2.2482 9.0506-2.8609 9.6633-0.61 0.61-1.11 1.69-1.11 2.41 0 2.5674 3.3128 1.2118 9.3348-3.8201 3.3702-2.816 6.8111-5.3676 7.6464-5.6702 0.83536-0.30255 2.7909-1.5985 4.3456-2.8799s3.4062-2.3298 4.1145-2.3298c0.70827 0 2.8112-1.3706 4.6733-3.0458 1.862-1.6752 5.4105-4.1729 7.8855-5.5505 6.4883-3.6114 10.966-6.4251 16.57-10.411 2.7117-1.9291 7.4054-4.8087 10.43-6.3992 3.025-1.5905 6.0675-3.3339 6.7611-3.8742 1.9262-1.5006 7.1933-4.4942 12.739-7.2404 2.75-1.3618 5.857-3.0391 6.9045-3.7274 7.28-4.78 12.15-7.75 12.71-7.75 0.7766 0 10.171-5.6219 14.402-8.6188 1.6454-1.1654 4.1166-2.4619 5.4916-2.8812 1.375-0.41932 3.625-1.5381 5-2.4862 4.8922-3.3732 58.561-30.772 75.5-38.544 4.4-2.0188 10.257-4.7504 13.016-6.0701 6.0729-2.9051 10.788-3.2182 10.3-0.68387-0.3493 1.8138-1.9534 2.8236-10.816 6.8086-3.025 1.3602-6.175 2.8478-7 3.3058-0.825 0.45806-3.075 1.626-5 2.5955-1.925 0.96944-4.625 2.3636-6 3.0981-7.1 3.8-41.67 20.48-42.43 20.48-0.48487 0-2.2741 1.0382-3.976 2.3072s-5.5694 3.5684-8.5944 5.1099-6.85 3.8113-8.5 5.0441-4.8 2.8495-7 3.5928c-2.2 0.74328-5.125 2.3347-6.5 3.5364s-3.5037 2.488-4.7304 2.8585c-2.6632 0.8042-11.673 6.1486-15.68 9.3012-1.5729 1.2375-3.4043 2.25-4.0699 2.25-0.66559 0-2.0246 0.9-3.0201 2-0.99549 1.1-2.3027 2.0141-2.905 2.0314-2.1941 0.0629-12.164 5.594-14.719 8.1658-1.443 1.4526-5.043 3.8528-8 5.3338s-6.7263 3.688-8.3763 4.9044c-3.99 2.94-15.72 8.57-17.86 8.57-0.9363 0-1.9554 0.65935-2.2646 1.4652-0.73402 1.9128-16.757 14.459-21.756 17.035-2.1346 1.1-5.8115 3.9125-8.171 6.25-4.7196 4.6755-5.9171 5.0403-8.5938 2.618-1.6903-1.5297-1.873-1.4513-2.9152 1.25-1.8066 4.683-6.6486 24.434-7.4482 30.382-0.40664 3.025-1.1948 6.625-1.7515 8-0.55667 1.375-1.1524 7.675-1.3238 14s-0.55864 13.975-0.86052 17c-0.68197 6.8336 0.45416 9.2066 3.2126 6.7102 1.0394-0.94063 2.3471-1.7102 2.9061-1.7102 0.55895 0 1.8308-0.9 2.8262-2 0.99549-1.1 2.5502-2 3.455-2 0.90475 0 2.0814-0.43636 2.6147-0.96968 0.53333-0.53333 14.775-7.926 31.647-16.428 16.873-8.5021 32.381-16.616 34.462-18.03 2.0817-1.4145 4.2429-2.5771 4.8027-2.5834 0.55983-0.006 5.2929-2.2144 10.518-4.9069 5.225-2.6925 18.05-9.222 28.5-14.51s19.675-9.9871 20.5-10.442c0.825-0.45538 2.85-1.5841 4.5-2.5082 1.65-0.92414 5.025-2.6132 7.5-3.7534 11.041-5.0864 33.148-16.297 33.609-17.044 0.27989-0.45287 1.8323-0.8234 3.4499-0.8234 1.6175 0 2.942-0.3375 2.9434-0.75 0.003-0.80358 6.4914-4.1641 16.998-8.8029 3.575-1.5785 7.1148-3.3233 7.8662-3.8774 0.7514-0.55409 2.7764-1.5438 4.5-2.1993 1.7236-0.65555 7.7434-3.0813 13.377-5.3906 14.99-6.144 18.37-3.7779 4.4799 3.1361-3.6979 1.8407-7.8484 4.0465-9.2234 4.9019-1.375 0.85535-4.3 2.1647-6.5 2.9097-2.2 0.74496-4.225 1.6515-4.5 2.0145-0.962 1.2699-10.98 6.0584-12.732 6.0859-0.9726 0.0153-3.0809 1.3653-4.6851 3-1.6041 1.6347-3.4215 2.9722-4.0385 2.9722-0.61707 0-2.8872 0.9-5.0448 2s-4.3902 2.0183-4.9614 2.0406c-0.57121 0.0223-2.5966 1.3724-4.5008 3s-4.2402 2.9594-5.191 2.9594c-0.95082 0-2.0069 0.45-2.3468 1-0.33992 0.55-1.6647 1-2.944 1-1.3046 0-2.9792 0.98797-3.8137 2.25-0.81826 1.2375-3.4575 2.8411-5.865 3.5635-2.4075 0.72242-5.9523 2.384-7.8773 3.6924s-5.75 3.1193-8.5 4.0243c-2.75 0.90499-6.575 2.8818-8.5 4.393s-5.2577 3.0298-7.4061 3.3747c-2.1484 0.34491-5.0734 1.7182-6.5 3.0517s-5.9689 4.0978-10.094 6.1428c-4.125 2.045-8.625 4.3183-10 5.0517-1.375 0.73341-6.3748 3.1519-11.111 5.3744-4.7359 2.2225-9.1818 4.7291-9.8799 5.5702-0.69807 0.84112-3.0142 1.8084-5.147 2.1494-2.1328 0.34105-5.7869 1.8194-8.1201 3.2853-2.3333 1.4659-6.2673 3.6604-8.7423 4.8767s-5.175 2.589-6 3.0503c-3.9447 2.2059-6.0667 3.1497-7.0821 3.1497-0.61006 0-2.5223 1.0125-4.2495 2.25-3.963 2.8394-7.5672 4.7436-9.0328 4.772-0.62463 0.0121-5.6063 2.2701-11.07 5.0177-5.464 2.7476-11.72 5.2812-13.902 5.6301-2.1821 0.34894-4.7005 1.3535-5.5962 2.2323-0.8958 0.87882-3.3126 2.383-5.3706 3.3425-4.8824 2.2764-5.4002 3.9797-5.5213 18.16-0.11686 13.69 0.0751 14.317 3.6675 11.961 1.4616-0.95828 3.7824-2.33 5.1574-3.0482zm20.556-56.228c-1.3147-2.1272 0.27104-3.7561 7.8312-8.0439 1.7121-0.97105 4.688-2.6656 6.613-3.7656s5.1582-2.939 7.1848-4.0867 5.4016-3.1393 7.5-4.4258 4.9402-2.8824 6.3152-3.5464c1.375-0.66403 3.175-1.643 4-2.1754 3.91-2.53 15.27-9.05 15.75-9.05 0.29964 0 2.4894-1.5934 4.8661-3.541 2.3767-1.9475 5.6856-4.0166 7.353-4.5978 1.67-0.58 3.03-1.46 3.03-1.96 0-0.49 0.83-0.9 1.84-0.9 1.0105 0 4.273-1.7383 7.25-3.8628 2.977-2.1246 6.5131-4.2078 7.858-4.6293 1.3448-0.42156 4.4948-2.0015 7-3.5109s5.7405-3.0218 7.1897-3.3608c1.4492-0.33904 4.9819-2.1959 7.8505-4.1263s5.8188-3.5098 6.5561-3.5098c0.73727 0 1.6265-0.46278 1.9761-1.0284 0.34957-0.56562 7.1438-4.1476 15.098-7.9599 7.9545-3.8123 15.683-7.7905 17.173-8.8404 1.4909-1.0499 3.8357-2.2423 5.2107-2.6497 1.375-0.40745 5.2-2.0033 8.5-3.5464 12.206-5.7076 25.052-10.971 26.782-10.973 0.9802-0.001 3.2954-0.63464 5.1449-1.4074 2.3024-0.962 3.6869-1.081 4.3906-0.37733 1.4503 1.4503-0.6753 5.7824-2.8372 5.7824-0.9342 0-4.3495 1.3443-7.5895 2.9873s-6.3409 3.0029-6.8909 3.022c-1.2781 0.0443-8.1076 3.4104-12 5.9145-1.65 1.0615-3.7303 1.9629-4.6229 2.0031-2.6756 0.1205-11.134 4.1605-14.901 7.1167-2.4287 1.9064-4.3009 2.617-6.0255 2.2873-1.894-0.36206-3.6267 0.51169-7.13 3.5954-2.5454 2.2405-5.1275 4.0737-5.738 4.0737-0.61056 0-1.8915 0.38922-2.8466 0.86494-0.95504 0.47572-4.2114 2.0577-7.2364 3.5156-6.0431 2.9124-13.63 7.0928-15.38 8.4749-0.61577 0.48614-2.9196 1.4482-5.1196 2.138-2.2 0.68975-5.4325 2.3234-7.1833 3.6303s-3.6005 2.3762-4.1104 2.3762c-0.50995 0-2.6775 1.1967-4.8167 2.6593-5.6022 3.8303-15.408 8.9078-18.83 9.7504-1.6173 0.39821-4.6771 2.0994-6.7995 3.7804s-7.3242 4.8046-11.559 6.9414c-4.2353 2.1368-10.625 5.67-14.2 7.8516s-7.625 4.5225-9 5.2019c-1.375 0.67942-3.5732 2.0407-4.8849 3.0251s-3.3803 1.7898-4.597 1.7898-3.2498 0.9-4.5182 2c-1.2683 1.1-2.8122 2-3.4308 2-0.61861 0-1.8954 0.9-2.8372 2-1.8049 2.1079-4.2314 2.619-5.1763 1.0902zm-16-32c-1.18-1.9 13.35-14.09 16.79-14.09 0.29704 0 5.1766-3.0866 10.844-6.8592 20.726-13.797 32.041-21.039 32.966-21.098 0.36449-0.0234 3.0542-1.6175 5.9772-3.5425s5.6204-3.5 5.9943-3.5c0.37392 0 3.7592-2.0241 7.5228-4.498s7.2282-4.4989 7.699-4.5c0.47085-0.001 2.5606-1.352 4.6439-3.002s4.2937-3 4.912-3 3.9422-1.712 7.3864-3.8044 8.4986-4.87 11.232-6.1724c2.7333-1.3024 7.3409-3.8654 10.239-5.6956 2.8982-1.8302 5.7196-3.3276 6.2699-3.3276 0.55025 0 2.679-1.0453 4.7306-2.3228s7.619-4.1668 12.372-6.4206c4.7531-2.2538 8.9421-4.5836 9.309-5.1772 0.3669-0.59365 1.5588-1.0794 2.6486-1.0794s3.4258-0.98317 5.191-2.1848c7.0931-4.8286 8.6522-5.8152 9.189-5.8152 0.30829 0 4.489-1.8492 9.2905-4.1092 4.8015-2.2601 10.755-5.0344 13.23-6.1651s5.625-2.8191 7-3.752c1.375-0.93287 4.3-2.2404 6.5-2.9057 2.2-0.66525 8.05-3.1472 13-5.5154 16.437-7.864 18.608-8.7575 22.568-9.2887 6.603-0.88564 4.4681 3.1236-3.5684 6.7013-7.555 3.3634-20.662 10.12-23.654 12.195-1.4599 1.0119-3.5367 1.8399-4.6151 1.8399s-3.1049 0.9-4.5034 2c-1.3984 1.1-2.8347 2-3.1918 2-0.357 0-6.6898 2.925-14.073 6.5-7.3829 3.575-13.995 6.5017-14.693 6.5037-0.69826 0.002-2.8446 0.97678-4.7696 2.1661s-6.65 3.726-10.5 5.6372-7.9 4.2193-9 5.1292c-1.1 0.90993-3.8 2.2492-6 2.9762-2.2 0.72696-5.125 2.3351-6.5 3.5736s-4.6706 3.0596-7.3236 4.0469c-2.653 0.98731-5.803 2.5392-7 3.4486-1.197 0.90942-3.7514 2.2676-5.6764 3.0183-1.925 0.75064-7.1 3.6994-11.5 6.5527s-9.575 5.9756-11.5 6.9383c-1.925 0.96275-4.175 2.3108-5 2.9956-0.825 0.68481-2.8272 1.5616-4.4494 1.9485-1.6221 0.38687-3.9632 1.7973-5.2022 3.1343-1.2391 1.337-3.0339 2.4309-3.9884 2.4309-0.95453 0-4.3636 2.0648-7.5757 4.5883-3.2121 2.5236-7.4953 5.0453-9.5181 5.6038-2.0228 0.55854-5.2647 2.0938-7.2042 3.4117-1.9394 1.3179-4.0126 2.3962-4.607 2.3962-0.59443 0-2.3626 1.338-3.9294 2.9733-1.5667 1.6353-4.9913 3.685-7.6101 4.5548-2.6189 0.86985-5.3013 2.2319-5.961 3.0267-0.65968 0.79486-1.7382 1.4452-2.3966 1.4452-0.65846 0-4.0909 2.246-7.6276 4.9911s-6.9083 4.9951-7.4925 5c-0.58419 0.005-2.925 0.90894-5.2017 2.0089s-4.6209 2-5.2093 2c-0.58836 0-1.5823 1.125-2.2088 2.5-1.1446 2.5121-3.2151 3.2846-4.2623 1.5902zm194.44-185.61c-1-1.24 25.8-15.48 29.2-15.48 0.9282 0 1.9888-0.48724 2.3568-1.0828 0.3681-0.59552 2.5322-1.8858 4.8091-2.8672 5.0267-2.1667 13.368-5.8853 16.258-7.2484 2.3668-1.116 5.7012-0.77787 5.8103 0.58931 0.075 0.93636-0.4739 1.2811-6.9289 4.3538-2.2 1.0472-5.35 2.6082-7 3.4687-5.1762 2.6996-14.503 6.7865-15.487 6.7865-0.5187 0-3.0719 1.35-5.6737 3-2.6017 1.65-5.6549 3.0198-6.7847 3.0439-1.1298 0.0242-5.1009 1.5217-8.8247 3.3278-5.0333 2.4414-7.0202 2.983-7.7438 2.111zm-265.76 205.52c4.3955-2.2 8.3763-4 8.8463-4 0.87327 0 10.205-4.3028 12.914-5.9542 0.825-0.50303 4.3715-1.5 7.8812-2.2156 7.1439-1.4565 8.5247-2.833 9.6106-9.5802 0.85133-5.2897-0.48809-5.5346-6.8367-1.25-2.4448 1.65-5.2363 3-6.2033 3-3.634 0-14.282 5.9031-16.051 8.899-1.1948 2.0227-4.7382 4.5187-11.057 7.7888-8.892 4.6018-12.112 7.3122-8.6883 7.3122 0.87596 0 5.189-1.8 9.5844-4zm395.76 1.39c12.134-3.5114 20.978-8.0088 25.743-13.091l2.2432-2.3922-14.243 0.15424c-21.803 0.2361-31.125-2.6268-32.254-9.9057-1.2406-7.9989-4.0331-15.407-6.6409-17.618-7.4184-6.2884-18.848-6.4345-18.848-0.241 0 5.4178 2.2921 12.225 5.1337 15.246 1.5765 1.6762 2.8663 3.5189 2.8663 4.095 0 0.57607 0.9 1.8619 2 2.8574 1.1 0.99549 2 2.2732 2 2.8393 0 9.5099 16.295 22.204 25.5 19.866 1.1-0.27947 4.025-1.0942 6.5-1.8104zm-73.513-41.016c1.8653-4.4642 1.9725-3.847-1.0079-5.7999-3.8789-2.5415-18.479 0.57605-18.479 3.9459 0 2.0531 3.2612 3.4663 8.1843 3.5465 2.3736 0.0386 5.2157 0.45702 6.3157 0.92971 3.1366 1.3478 3.3817 1.219 4.9866-2.6221zm-263.65-23.23c1.4599-1.0238 4.2463-2.1513 6.192-2.5055 3.7925-0.69041 6.9624-4.5954 6.9624-8.5772 0-1.1746 0.87126-3.8434 1.9361-5.9307 3.8104-7.469 3.2562-10.949-2.4361-15.296-10.308-7.873-13.403-3.6344-16.712 22.891-1.4022 11.241-0.73842 12.781 4.0571 9.4184zm-182.9-2.5008c1.4051-1.2992 4.3547-2.8331 6.5547-3.4085 5.2147-1.3639 9.9901-3.0378 15.277-5.3549 2.3522-1.0309 5.1864-1.8744 6.2983-1.8744 1.1118 0 3.6873-0.80029 5.7232-1.7784 2.0359-0.97813 8.4267-3.2737 14.202-5.1013 9.7949-3.0997 15.679-5.1676 20.5-7.2048 3.9266-1.6592 14.059-5.109 17.482-5.952 1.9153-0.47172 3.6403-1.3315 3.8333-1.9106 0.19303-0.57909 1.6028-1.0529 3.1328-1.0529s3.926-0.9 5.3244-2 3.3996-2 4.447-2 3.7672-0.9 6.044-2c2.2767-1.1 4.7812-2 5.5654-2 0.78422 0 1.9861-0.675 2.6708-1.5 0.68469-0.825 2.5843-1.5 4.2213-1.5s4.3944-0.65489 6.1276-1.4553c1.7331-0.80042 5.1761-2.1894 7.6511-3.0865 13.579-4.9221 13.894-5.1649 11.478-8.8513-2.3181-3.5378-8.7398-3.5745-16.101-0.0919-2.9239 1.3832-7.4674 2.769-10.096 3.0794-2.6291 0.31044-5.6802 0.93328-6.7802 1.3841-6.1748 2.5306-8.6143 3.1916-9.924 2.689-1.4283-0.54809-9.5878 1.641-20.576 5.5204-6.1988 2.1885-15.374 5.0804-25 7.8798-9.4972 2.762-18.361 5.9576-19.45 7.012-0.5225 0.50611-2.0975 0.93021-3.5 0.94244-1.4025 0.0122-3.675 0.90222-5.05 1.9778-1.375 1.0755-3.2924 1.9655-4.2609 1.9778-0.96849 0.0122-3.6685 0.89357-6 1.9585-8.6559 3.9538-12.074 5.0638-15.611 5.0699-1.9953 0.003-4.9168 0.67839-6.4922 1.5-8.0337 4.1898-28.088-0.16458-36.734-7.9763-2.1062-1.9029-6.2082-4.6576-9.1155-6.1216-2.9072-1.464-5.6458-3.2798-6.0856-4.035-0.44-0.76-1.65-1.38-2.69-1.38-1.0402 0-2.1689-0.44913-2.5081-0.99806-0.33926-0.54893-3.0757-2.1613-6.0809-3.583s-6.6917-3.5903-8.1922-4.8191-4.1478-2.8033-5.8829-3.4989c-1.7351-0.69557-3.3805-2.1278-3.6564-3.1828-0.51639-1.9747-4.1049-2.672-5.1391-0.99858-0.6686 1.0818 5.5522 6.4212 9.9115 8.5071 1.6713 0.79973 5.4936 3.7309 8.494 6.5137 3.0003 2.7828 5.786 5.0597 6.1905 5.0597 0.40443 0 3.7996 2.8727 7.5448 6.3838s8.3845 7.666 10.31 9.2332c1.925 1.5672 3.8599 3.4195 4.2997 4.1162 0.43983 0.69674 2.0148 1.2753 3.5 1.2856 2.4634 0.0171 9.8892 3.4822 21.33 9.9531 3.748 2.1199 10.087 4.4514 13.316 4.8975 0.51991 0.0718 2.0949-0.93241 3.5-2.2316zm486.25-24.14c4.545-3.025 9.0782-5.5 10.074-5.5 0.9957 0 2.0621-0.65624 2.3699-1.4583 0.3078-0.80207 2.6561-2.6805 5.2186-4.1743 10.966-6.3926 23.955-18.156 27.138-24.576 6.0489-12.202-3.616-10.137-21.979 4.695-5.6155 4.5357-23.939 14.514-26.652 14.514-4.3002 0-7.0473 5.2176-7.2536 13.777-0.2438 10.119-0.086 10.158 11.085 2.7231zm-280.29-13.82c1.1491-2.3736 2.096-4.9612 2.1043-5.75 0.008-0.78886 0.66353-3.2343 1.4561-5.4343 0.79258-2.2 1.4608-4.5258 1.485-5.1684 0.0525-1.397-7.3895-9.3316-8.7522-9.3316-0.52411 0-3.5969-2.6938-6.8284-5.9863s-6.3766-5.9925-6.9891-6c-0.6125-0.008-2.1875-1.0685-3.5-2.3576-1.3125-1.2892-5.7555-5.2266-9.8734-8.75-18.39-15.73-29.01-28.15-29.01-33.93 0-6.1499-6.2114-7.4023-17-3.4275-1.925 0.70922-6.9695 1.5685-11.21 1.9095-12.054 0.96939-17.861 3.7078-19.204 9.0561-0.32062 1.2774-2.1587 3.2964-4.0846 4.4867-5.4547 3.3712-4.5255 5.3297 4.9983 10.535 2.75 1.503 6.8757 4.2478 9.1683 6.0994 2.2926 1.8517 4.471 3.3667 4.841 3.3667 0.37001 0 3.2193 1.7233 6.3317 3.8296 11.084 7.5009 13.78 9.1704 14.808 9.1704 0.5727 0 1.8558 0.9 2.8512 2 0.99549 1.1 2.1661 2 2.6014 2 1.3098 0 12.99 7.0915 15.014 9.1157 1.0364 1.0364 2.4895 1.8843 3.2293 1.8843 0.73976 0 2.1595 0.9 3.155 2 0.99549 1.1 2.3042 2 2.9082 2 0.60401 0 3.3225 1.5814 6.0411 3.5142s6.7457 3.9997 8.9491 4.593c2.6248 0.70679 5.9249 2.9575 9.5704 6.5271 9.9181 9.7116 13.757 10.629 16.942 4.0499zm274.54-6.6073c0.3137-0.50769 2.0212-1.2417 3.7943-1.6312 4.7631-1.0462 15.753-8.4814 15.753-10.658 0-1.0043-4.447-0.62666-9.75 0.82794-1.6066 0.44069-2.25 0.18884-2.25-0.88075 0-0.92192 1.6343-1.9236 4.25-2.6051 5.7911-1.5086 6.982-2.4547 6.5875-5.2332-0.3827-2.6949-3.0331-3.5924-6.2189-2.1059-3.0231 1.4106-9.9863 3.2088-12.426 3.2088-2.8011 0-3.1947 0.87522-4.0678 9.0474-0.8651 8.0957 1.7609 14.182 4.3273 10.03zm7.8049-28.763c7.5351-1.0532 9.5344-4.4168 9.119-15.342-0.1981-5.2095-0.3638-9.8791-0.3683-10.377 0-0.49774-0.7956-0.21713-1.7581 0.62358-0.9625 0.8407-3.3285 2.0344-5.2578 2.6526-10.988 3.5209-18.743 26.405-8.0044 23.619 1.3817-0.35841 4.2031-0.888 6.2696-1.1769zm-21.951-4.077c4.6025-0.78776 5.7056-3.6821 5.6466-14.816-0.1142-21.561-0.03-26.161 0.5949-32.362 0.5021-4.986 0.3267-6.6806-0.7763-7.5-1.6894-1.255-2.9158-5.3517-1.8073-6.0368 1.0786-0.66658 2.0312-5.5807 2.9643-15.29 0.5108-5.3154 1.3778-8.913 2.4277-10.073 0.8982-0.99251 1.9227-4.0217 2.2767-6.7315 0.3541-2.7098 1.0097-5.6443 1.4569-6.5211 0.592-1.1605-0.2823-2.6567-3.2139-5.5-2.215-2.1482-4.5992-5.2559-5.2984-6.9059-1.3399-3.1624-7.569-9.8896-10.717-11.575-1-0.53-1.8-1.51-1.8-2.17 0-1.3-11-12.74-12.2-12.74-0.4279 0-3.7336-2.8696-7.346-6.377-7.7099-7.4856-10.463-8.2397-22.345-6.1197-18.382 3.2796-25.317 8.843-16.266 13.049 25.03 11.633 42.151 21.408 49.726 28.39 2.4209 2.2315 5.3117 4.0572 6.424 4.0572 1.5443 0 2.0223 0.65644 2.0223 2.7775 0 1.5276 0.7173 3.8016 1.5941 5.0534 2.5119 3.5863 0.7013 84.917-2.0876 93.77-0.8344 2.6489 2.0442 5.819 4.3724 4.8152 0.8916-0.38442 2.8841-0.91512 4.4279-1.1793zm15.8-20.23c0-0.55 0.4803-1 1.0673-1s3.9685-1.6875 7.5145-3.75l6.4473-3.75-0.2646-5.3965c-0.3335-6.8031-2.4598-8.6778-6.034-5.32-1.2977 1.2191-2.7124 2.2165-3.1438 2.2165-5.8646 0-10.126 6.7765-8.9368 14.212 0.5308 3.3196 3.3501 5.6659 3.3501 2.788zm6.2405-24.024c7.6989-3.6775 10.726-8.6726 12.352-20.386 0.6315-4.5461 0.5422-4.8524-1.2055-4.1348-1.0381 0.42625-3.2375 1.1054-4.8875 1.5093-4.439 1.0865-12.5 6.8798-12.5 8.9836 0 0.99369-0.675 2.3669-1.5 3.0516-1.0129 0.84064-1.5 3.0994-1.5 6.9558 0 8.2695 0.1806 8.3481 9.2405 4.0204zm0.2-27.48c3.5031-1.925 6.8828-3.5 7.5104-3.5 2.4861 0 10.057-7.5538 10.057-10.034 0-1.0026 0.5625-2.4361 1.25-3.1857 7.2152-7.8668 7.454-17.505 0.2928-11.814-2.0998 1.6687-4.4364 3.034-5.1924 3.034-1.0536 0-15.538 6.3859-17.166 7.568-0.3341 0.24266-5.1139 19.406-5.1586 20.682-0.05 1.4268 2.064 0.73531 8.4066-2.75zm8.8801-31.368c3.4029-1.5774 9.6269-4.3174 13.831-6.089 8.8114-3.7128 15.866-8.9338 12.165-9.0024-1.205-0.0224-2.4691 0.40936-2.809 0.95936s-1.8723 1-3.4054 1c-1.533 0-4.1375 0.67358-5.7878 1.4968-3.4768 1.7344-12.056 3.5032-16.993 3.5032-5.6682 0-9.6284 2.6106-8.8238 5.8168 1.5092 6.013 3.1519 6.3347 11.823 2.3153zm51.7-23.13c1.375-1.0755 2.9699-1.9655 3.5443-1.9778 2.0312-0.0433 17.173-8.0523 18.963-10.03 1.7857-1.9732 1.7653-1.9965-1.2218-1.399-4.2236 0.84473-27.578 12.628-28.059 14.157-0.6166 1.961 3.9549 1.4548 6.7736-0.75z"/>
</svg>
